<?xml version="1.0" encoding="utf-8"?>
<!-- Generator: Adobe Illustrator 18.1.1, SVG Export Plug-In . SVG Version: 6.00 Build 0)  -->
<svg version="1.1" xmlns="http://www.w3.org/2000/svg" xmlns:xlink="http://www.w3.org/1999/xlink" x="0px" y="0px"
	 viewBox="0 0 620.8 185.6" enable-background="new 0 0 620.8 185.6" xml:space="preserve">
<g id="Layer_2" display="none">
</g>
<g id="Layer_1">
	<g>
		<g>
			<g>
				<path d="M65.6,33.6c-9-0.6-18-1.2-26.9-1.8c-5.1-0.3-12.2-1.9-14,4.5c-1.1,3.7-0.5,8.3-0.6,12.1c-0.1,4.9-0.2,9.8-0.2,14.7
					c-0.3,23.1-0.5,46.3-0.9,69.4c-0.1,4.5-0.5,9-0.3,13.5c0.1,2.4,0.7,4.2,2.9,5.2c4.1,1.9,9.9,2,14.3,2.9c2.8,0.5,3.9-3.7,1.2-4.2
					c-2.9-0.5-12.9-0.9-14-3.9c-0.6-1.5,0.1-4.4,0.1-6c0.1-5,0.2-10,0.2-15c0.2-13.3,0.3-26.7,0.5-40c0.1-12,0.3-24.1,0.5-36.1
					c0-2.1,0.1-4.2,0.1-6.3c0-0.9,0-1.9,0.1-2.8c0.2-4,2.9-4,6.1-3.8c10.3,0.6,20.5,1.3,30.8,2C68.4,38.1,68.4,33.7,65.6,33.6
					L65.6,33.6z"/>
			</g>
		</g>
		<g>
			<g>
				<path d="M567.5,37.2c9.6-1.9,19.2-1.9,28.9-0.1c-0.5-0.7-1.1-1.4-1.6-2.1c0.7,19.5,0.5,39,0.3,58.6c-0.1,10.4-0.3,20.8-0.6,31.2
					c-0.1,4.1-0.3,8.3-0.5,12.4c-0.1,2.5,0.3,4.6-2.6,5.3c-3.2,0.8-8.1-0.3-11.3-0.6c-2.8-0.3-2.8,4.1,0,4.4c4.3,0.5,14.7,3,17.3-2
					c1.6-3,1-8.1,1.2-11.4c0.5-10.8,0.7-21.6,0.9-32.4c0.3-21.8,0.5-43.6-0.2-65.4c0-0.9-0.7-1.9-1.6-2.1c-10.4-2-20.8-1.9-31.2,0.1
					C563.6,33.5,564.7,37.8,567.5,37.2L567.5,37.2z"/>
			</g>
		</g>
	</g>
</g>
</svg>
