<?xml version="1.0" encoding="utf-8"?>
<!-- Generator: Adobe Illustrator 18.1.1, SVG Export Plug-In . SVG Version: 6.00 Build 0)  -->
<svg version="1.1" xmlns="http://www.w3.org/2000/svg" xmlns:xlink="http://www.w3.org/1999/xlink" x="0px" y="0px"
	 viewBox="0 0 83.5 80.8" enable-background="new 0 0 83.5 80.8" xml:space="preserve">
<g id="Layer_2" display="none">
</g>
<g id="Layer_1">
	<g>
		<g>
			<path fill="#59C9E7" d="M65.6,25.5c-3.5,2.9-4.2,10.5-6.4,13.8c-3.6,5.4-10.9,7-17.4,6.6c-11-0.7-33.3-7.6-31.6,10.1
				c1.1,11.9,18.1,18.7,27.7,20.5c7.1,1.4,14.6,1.8,21.3-1c5.2-2.2,9.5-6.2,12.9-10.7c3.7-4.8,6.8-10.3,7.3-16.3
				c0.4-5.1-2.8-23-9.8-24C67.9,24.2,66.6,24.6,65.6,25.5z"/>
		</g>
		<g>
			<g>
				<path d="M54,3.8C46.3,1.1,37.9,0.6,30,3c-7.5,2.3-13.5,7.6-18.4,13.6c-8.4,10.2-11.8,29-3.5,40.2c8.4,11.3,26,15.9,39.5,14.7
					C62.3,70,76.1,56.1,78.4,41.5C81,25.1,68.5,9.6,54,3.8c-1.9-0.8-2.8,2.3-0.9,3.1C69.2,13.3,81,32.5,72.4,49.1
					C68.5,56.6,61.9,64,53.8,66.8c-8.2,2.9-17.9,1.4-26-1.1C20.6,63.5,13,59.5,9.2,52.7C5.1,45.1,6.6,35,9.1,27.1
					c2.4-7.5,9.6-14.8,16.3-18.7c8.3-4.8,18.8-4.5,27.7-1.5C55.1,7.6,56,4.5,54,3.8z"/>
			</g>
		</g>
		<g>
			<path fill="#FFFFFF" d="M65.3,39c0-11.4,0-22.4-14.4-21.8c-7.4,0.3-14.8,0.6-22.1,0.9c-8.8,0.4-9.6,6.4-10.3,14.1
				c-0.4,4.1-0.5,8.6,0,12.7c0.3,3.2,2,5.9,3.8,8.5c0.3,0.5,0.7,1,1.2,1.4c0.5,0.4,1.1,0.7,1.7,1c1.3,0.6,2.6,1.1,3.9,1.6
				c-2.6-2.3-4.9-12.7,1.2-11.6c9,1.7,18.3,2.1,27.4,1c2.5-0.3,5.3-0.9,6.7-3C65.2,42.6,65.3,40.7,65.3,39z"/>
			<g>
				<path d="M67.1,39c0-7.1,0.5-16.8-6.2-21.3c-3.8-2.6-8.5-2.4-12.8-2.2c-6.9,0.3-14.2,0-21,1c-9.1,1.3-10.2,9.9-10.7,17.6
					c-0.4,6-0.6,12.3,2.5,17.7c2.5,4.4,5,5.7,9.6,7.5c1.8,0.7,3-1.9,1.8-3.1c-1-1.1-1.6-2.6-1.9-4.1c-0.6-2.9-0.2-4.6,3-4.1
					c5.9,0.9,11.9,1.5,17.9,1.3C57.5,49.2,66.9,49.2,67.1,39c0.1-2.4-3.6-2.4-3.7,0c-0.1,6.1-4.9,6.1-9.5,6.4
					c-3.7,0.3-7.3,0.3-11,0.1c-3.8-0.2-7.6-0.7-11.4-1.3c-1.5-0.2-3-0.6-4.4,0.2c-4.9,2.5-2.5,11.2,0.5,14.3c0.6-1,1.2-2.1,1.8-3.1
					c-4.7-1.8-7.8-4.5-9.1-9.7c-1.1-4.3-0.5-9.4-0.2-13.8c0.3-3.2,0.4-7.5,2.7-10c2.9-3.1,8.4-2.3,12.3-2.5
					c4.6-0.2,9.2-0.4,13.8-0.6c3.6-0.1,7.7-0.4,10.6,2.2c4.6,4,3.8,12.2,3.8,17.7C63.4,41.4,67.1,41.4,67.1,39z"/>
			</g>
		</g>
		<g>
			<g>
				<g>
					<path d="M31,29.2c3.2-1.3,8.6-0.3,12-0.4c3.9,0,7.8,0,11.7-0.1c2.1,0,2.1-3.2,0-3.2c-4.5,0-9,0-13.5,0.1
						c-3.7,0-8.3-0.7-11.8,0.8C27.5,27.2,29.1,30,31,29.2L31,29.2z"/>
				</g>
			</g>
			<g>
				<g>
					<path d="M31,38.7c3.2-1.3,8.6-0.3,12-0.4c3.9,0,7.8,0,11.7-0.1c2.1,0,2.1-3.2,0-3.2c-4.5,0-9,0-13.5,0.1
						c-3.7,0-8.3-0.7-11.8,0.8C27.4,36.8,29.1,39.5,31,38.7L31,38.7z"/>
				</g>
			</g>
			<g>
				<g>
					<path d="M30.1,34.1c8.2,0,16.4,0,24.5,0c2.1,0,2.1-3.2,0-3.2c-8.2,0-16.4,0-24.5,0C28.1,30.9,28.1,34.1,30.1,34.1L30.1,34.1z"
						/>
				</g>
			</g>
		</g>
	</g>
</g>
</svg>
