<?xml version="1.0" encoding="utf-8"?>
<!-- Generator: Adobe Illustrator 18.1.1, SVG Export Plug-In . SVG Version: 6.00 Build 0)  -->
<svg version="1.1" xmlns="http://www.w3.org/2000/svg" xmlns:xlink="http://www.w3.org/1999/xlink" x="0px" y="0px"
	 viewBox="0 0 651.4 630.1" enable-background="new 0 0 651.4 630.1" xml:space="preserve">
<g id="Layer_2" display="none">
</g>
<g id="Layer_1">
	<g>
		<g>
			<path fill="#E95150" d="M228.5,438.5c-0.6-0.9-10.4,0.5-11.8,0.6c-4.2,0.2-8.4,0.4-12.5,0.6c-7,0.4-13.8,0.1-20.8,0.7
				c-6.4,0.5-13.7,1.7-17.4,7c9.8-1.1,20.8-1.8,28.5,4.5c6.3,5.1,8.6,13.7,8.9,21.7c-4-7.4-8.4-15.2-15.9-18.9
				c-4.2-2.1-9.1-2.6-13.8-3.1c-28.5-2.6-57.4-1.8-85.8,2.2c1.2-6.9-6.8-12.1-13.8-12.4c-12.9-0.6-24.2,7.9-34.2,16
				c-3.2,2.6-6.6,5.4-8,9.3c0.6-12.6,11.4-22.1,21.3-29.9c6.4-5,13.4-10.3,21.5-10.4c2.6,0,5.2,0.5,7.7,0c2.5-0.5,5-2.7,4.7-5.3
				c-0.1-1.1-0.7-2-1.3-3c-3.4-5-7.9-9.2-13.2-12.1c-3.4-1.9-7.1-3.2-10.3-5.5c-3.2-2.3-5.8-5.7-5.7-9.6c6.6,1.7,12.8,5,17.8,9.6
				c6.4,5.8,12.2,14.8,20.9,17.2c5,1.4,10.8,0.1,14-3.9c2.3-2.9,2.8-6.7,3-10.4c0.1-2.5,0-4.9-0.7-7.3c-0.7-2.4-1.8-4.6-2.1-7
				c-0.5-3.7,1.1-7.4,2.2-10.9c2-6.5,2.6-13.5,1.6-20.3c-0.5-3.7-1.5-7.2-2.1-10.9c-0.1-0.5-0.2-1.1,0.1-1.5
				c0.4-0.7,1.5-0.6,2.1-0.1s0.8,1.3,1.1,2.1c2.7,9.6,5.4,19.3,5.8,29.2c0.1,2.7,0.1,5.5-0.6,8.1c-0.7,2.8-2.1,5.4-2.8,8.3
				c-1.5,5.5-1.1,15.4,2.1,20.4c2.9,4.3,9.7,1.1,12.2-2.1c2.9-3.6,3.9-8.3,5.6-12.6c1.1-2.7,2.4-5.2,3.2-8c0.6-2.3,0.9-4.6,1.2-7
				c1.4-11.3,3.7-22.4,7-33.3c1.3-4.3,2.9-8.8,6.2-11.9c0.2,3.9-1.8,7.5-3.3,11.1c-3.1,7.5-2.5,14.7-3.1,22.5
				c-0.7,8.1-2.7,16-3.5,24.1c-0.8,8.3-4.9,15.6-5.3,24.2c-0.1,1.9,0,3.9,1.3,5.3c0.8,0.9,2,1.4,3.2,1.5c3.6,0.3,6.7-2.7,8.3-6
				s2.1-7,3.5-10.3c1.1-2.5,2.7-4.7,3.3-7.3c0.3-1.4,0.3-2.8,0.6-4.2c0.9-5.2,4.6-9.5,8.1-13.4c1.9-2.2,3.9-4.4,6.4-6
				c5.4-3.5,12.6-3.8,17.6-7.8c3.6-2.9,6.6-7.9,11.3-7.5c-1.8,3.6-4.7,6.4-7.6,9.2c-11.8,11.2-24.3,22.5-31.1,37.3
				c-2.3,4.9-3.9,10.3-6.9,14.9c-1.7,2.6-7.8,6.5-6.7,10.1c0.7,2.3,3.8,2.9,6.1,2.5c4.8-0.9,9-4.1,13.8-5c5.2-0.9,10.4,1.1,15.6,1.1
				c6.4,0,12.5-2.8,18.9-3.1c3.8-0.2,7.5,0.5,11.2,1.2C220.6,433.8,225.6,434.9,228.5,438.5z"/>
			<path fill="#58C9E7" d="M183.8,261.7c-2.9,2.1-7.3,0.5-10.4,2.2c-3.1,1.7-3.8,5.7-3.7,9.2c0,0.8,0,1.7,0.5,2.4
				c0.9,1.5,2.9,1.7,4.7,1.7c13.4,0.1,26.7-2.1,40.1-1.9c1,0,2.1,0,3.1-0.5c1.4-0.7,2.1-2.3,2.6-3.9c6.2-19.9,3.4-45.3,4.2-65.9
				c0-0.5,0-1.2-0.3-1.6c-0.4-0.4-1-0.5-1.5-0.5c-6.6,0.1-9.3,9.4-12.1,14c-4,6.6-10.9,11.5-18.5,12.9c-5.6,1.1-12.9,1.3-15,6.6
				c-1.4,3.3,0.2,7.1,2.3,10C182.7,250.6,190.7,256.6,183.8,261.7z"/>
			<path fill="#58C9E7" d="M121.2,162.6c-3.4,2.3-12.4,7.7-16.4,8.1c-1.7,0.2-3.3,0-5,0.2c-3.1,0.5-5.7,2.9-7.1,5.7
				c-1.4,2.8-1.8,6-1.6,9.2c0.1,2.3,0.6,4.9,2.3,6.5c3.7,3.4,14.8,1.6,19.5,1.5c8.8-0.2,17.6-0.4,26.4-0.5c4.3-0.1,9.1-0.3,12.3-3.3
				c2.2-2,3.2-5,3.9-7.9c3.7-16.3-1.4-33.2-2.8-49.9c-0.1-1.8-0.3-3.7-1.5-5c-0.9-1.1-2.3-1.6-3.7-1.8c-4-0.7-8.4,0.5-11.5,3.2
				C126.6,137,131.7,155.5,121.2,162.6z"/>
			<path fill="#58C9E7" d="M374.1,592c8.9-0.8,15.8,4.8,24.7,4.8c23.4-0.2,49-4.5,72.3-1.9c22.2,2.5,44.4,5.9,66.7,7.4
				c33,2.2,66.4,0,98.9-6.5c3.3-5.5-4.7-10.6-10.9-12c-12.1-2.8-24.1-5.5-36.2-8.3c3.5-6.4,0.6-14.9-5-19.7s-13-6.7-20.2-8
				c-17-3.1-34.4-3.8-51.7-4.5c-18-0.7-36-0.4-54,0.6c-6.9,0.4-19.8-0.9-26,2.3c-6.6,3.4-0.6,15.5,4.1,18.8c2.6,1.8,5.9,3,7.7,5.6
				c1.5,2.2,1.6,5,1.7,7.7c0.1,3.7-0.1,7.9-2.7,10.6c-2.8,3.1-7.5,3.3-11.7,3.3c-8.5,0.1-16.9,0.1-25.4,0.2
				c-8.3,0.1-6.2-38.3-10.8-37.3c-3.6,0.8-7.2,1.7-9.8,3.3c-3.2,1.9-3.8,5.3-7.3,7.3c-2.2,1.2-4.7,1.7-7.1,2.2
				c-12.3,2-28.6-0.9-40.6,0.1c-16.7,1.4,2.6,15.7-14,16.8c-39.1,2.7-69.4-15.9-88.5-16.8c-12.1-0.6-25,0.8-34.6,8.2
				c-2.2,1.7-4.3,4-4.3,6.8c0.1,5.1,6.7,6.9,11.8,7.2c46.3,2.9,92.7,4.1,139.2,3.8C351.8,594,363,592.9,374.1,592z"/>
			<g>
				<g>
					<path fill="#58C9E7" d="M362.1,356.8c-1.3-0.5-2.8,0-4.1,0.7c-5.8,3.2-8.9,9.8-10,16.4s-0.3,13.2-0.1,19.8
						c0.3,11.1-1.2,22.3-4.3,33c-1.7,5.9-4,11.7-6.3,17.4c-2.6,6.2-5.3,12.5-6.9,19c-1.4,5.8-1.9,11.7-2.4,17.6
						c-1.2,14.6-2.4,29.1-3.6,43.7c-0.2,2.5-0.4,5.1,0.6,7.4c1,2.3,3.6,4.1,6,3.3c1.6-0.6,2.7-2.1,3.5-3.6
						c12.8-22.8,10.1-51,17.4-76c3.6-12.3,9.8-24.2,10.3-37.1c0.2-5.6-0.6-11.3,0.6-16.8c1.7-7.5,7.2-13.9,8-21.5
						c0.7-7.2-2.8-14-6.2-20.4C364.1,358.6,363.3,357.3,362.1,356.8z"/>
					<path fill="#58C9E7" d="M415.3,280.5c-4.5-6.6-13.8-7.8-21.7-6.5c-7.1,1.1-14.3,3.9-18.8,9.5c-7.7,9.5-5.2,23.4-1.5,35
						c2.6,8.1,4.8,18.3,8.9,25.7c3.9,7,12,9,16.3,15.8c2.9,4.6,3.7,10.3,3.8,15.8c0.1,12.1-3.2,24-4.7,36c-2.1,17.8,1,34,5.8,51.1
						c2,6.9,1.6,13.5,3.1,20.5c2.1,9.2,5.8,18,6.4,27.6c0.7,11.7-3.1,23.5-0.7,34.9c0.5,2.5,1.4,5.1,3.5,6.6
						c4.1,3,10.3-0.1,12.4-4.8s1.2-10,0.6-15c-1.3-11.3-1.3-22.7-1.4-34c0-5.5,0-11,0-16.4c0-30-0.1-60.1-0.8-90.1
						c-0.1-5.8-0.3-11.5-1.1-17.2c-0.6-4.1-2-8.4-2.2-12.5c-0.2-3.7,1.4-7.1,1.9-10.9c1.2-8.5-0.3-17.1-2.2-25.4
						c-1.8-8-4-16-4.5-24.2C418.2,294.6,419.6,286.9,415.3,280.5z"/>
					<path fill="#E95150" d="M418.4,265.6c1.5,1.6,4.4,0.7,5.5-1.2s1-4.2,0.9-6.3c7.7,5.2,17.4,9.3,26.6,8.6
						c-1.3-5.5-3.4-12.9-3.8-18.5c-1.1-15.1,5.2-37.1-3.4-50.3c-4.6-7-12.6-11.4-20.4-13.8c-3.5-1.1-8.2-2.7-11.7-1.4
						c-4.4,1.6-8.7,5.5-11.9,8.8c-2.9,3-5.4,6.5-6.2,10.6c-1.5,7.5,3.2,14.8,8.4,20.3c2.9,3,6.2,6.3,6.3,10.5c0,3.9-3,7.3-6.5,8.8
						c-3.6,1.6-7.6,1.7-11.4,1.7c-3.9,0-7.9,0-11.5,1.4c-0.1,1.7,1.8,2.7,2.9,4c1.8,2,1.6,5.2,0.2,7.5c-1.4,2.3-3.7,3.9-6.1,5.2
						c-3.2,1.7-6.6,3.1-10.1,4c-3.4,0.9-7.1,1.3-10.6,0.9c-1.8-0.2-3.5-0.7-5.1-1.5c-1-0.5-2.1-1.8-3.2-2.1
						c-4.6-1-6.3,12.3-6.7,15.7c-0.4,3.3-0.4,6.6-1,9.9c-1.4,7.3-2.4,16-2.2,23.4c0.1,3.3-1.7,5.1,1.4,6.1c3.6,1.2,7.1-1.7,9.6-4.5
						c4.3-4.8,7.3-10.4,11.2-15.3c4.1-5.2,9.9-9.8,15.2-13.7c7.6-5.5,16.4-9.7,25.8-10.3c4-0.2,8.2,0.2,11.8,2.2s6.3,5.6,6.4,9.7
						C420.2,279.3,420.1,272.2,418.4,265.6z"/>
					<path fill="#58C9E7" d="M360.9,93.2c-6.8,3.6-13.8,7.4-18.3,13.6c-4.9,6.8-6,15.6-6.1,24s0.6,16.9-1.2,25
						c-2.4,10.8-9.3,21.9-5.1,32.1c0.8,1.9,2,3.8,3.9,4.7c1.3,0.6,2.7,0.8,4.1,0.8c6.6,0,12.9-3,18.8-6c3.8-1.9,7.8-3.9,10.4-7.2
						c2.6-3.4,3.5-8.5,0.8-11.8c-1.5-1.8-3.8-2.8-5.8-3.9c-8.3-4.7-13.7-14.2-13.5-23.8c8.9-8.9,15-20.6,17-33.1
						c4.6,5.3,10.8,9.1,17.6,10.9c3,0.8,6.2,1.2,8.9,2.7c2.8,1.5,5.1,4.4,4.7,7.4c2.2-1.2,5.2-0.7,7,1.2c1.7,1.8,2.1,4.8,0.9,7
						c-0.8,1.5-2.3,2.5-3.3,3.9c-1,1.3-1.6,2.8-2.2,4.3c-1.6,4-3.3,7.9-4.9,11.9c-0.9,2.1-1.7,4.2-1.9,6.5
						c-0.5,6.3,4.2,11.7,8.6,16.2c1.6-2.3,3.1-4.6,4.7-6.9c4.6-6.8,3.4-15.6,3.3-23.9c-0.1-10.3-0.5-20.8-3.3-30.7
						s-8.5-19.4-17.3-24.8C379.8,87.9,370,88.4,360.9,93.2z"/>
					<g>
						<g>
							<g>
								<g>
									<path d="M377.2,106.6c6.7,0.7,13.9,4.7,16.4,11.4c1.2,3.2,0.9,6.8,2.1,9.9c0.5,1.3,2.6,0.7,2.1-0.6
										c-1.9-4.7-0.9-9.8-4.3-14c-4.2-5.3-9.7-8.2-16.4-8.9C375.8,104.2,375.8,106.4,377.2,106.6L377.2,106.6z"/>
								</g>
							</g>
							<g>
								<g>
									<path d="M395.2,125c0.3,4,0.7,8,1,11.9c0.4,4.3,1.3,9,0.2,13.3c-1.8,7.2-9.6,17.8-17.1,19.1c-4.2,0.7-9.2-1.3-13-3.1
										c-4.3-2-6.6-5.3-9-9.2c-4.2-6.9-10-14.1-11.1-22.2c-0.2-1.4-2.3-0.8-2.1,0.6c0.7,4.9,2.8,8.6,5.3,12.8
										c2.9,4.8,5.6,10.1,8.9,14.6c4.1,5.5,14.4,10,21.3,8.8c7.9-1.4,13.8-10.1,17.2-16.7c4.5-8.7,1.3-20.6,0.5-29.9
										C397.2,123.6,395.1,123.6,395.2,125L395.2,125z"/>
								</g>
							</g>
							<g>
								<g>
									<path d="M377.2,128.7c2.4-2.5,5.5-3.7,8.9-3.4c1.4,0.1,1.4-2.1,0-2.2c-4-0.3-7.7,1.1-10.5,4
										C374.6,128.2,376.2,129.7,377.2,128.7L377.2,128.7z"/>
								</g>
							</g>
							<g>
								<g>
									<path d="M356.4,132.1c2.1-0.3,4.1,0.1,5.9,1.3c1.2,0.8,2.3-1.1,1.1-1.9c-2.1-1.4-4.5-1.9-7-1.6
										C355.1,130,355,132.2,356.4,132.1L356.4,132.1z"/>
								</g>
							</g>
							<g>
								<g>
									<path d="M370.4,141c-0.1,1.6-0.7,3.9,0.1,5.3c0.7,1.3,2.2,1.3,3.4,2.1c1.2,0.8,2.3-1.1,1.1-1.9c-0.6-0.4-2.3-0.7-2.6-1.4
										c-0.2-0.4,0-1.3,0.1-1.7c0.1-0.8,0.1-1.6,0.2-2.4C372.7,139.6,370.5,139.6,370.4,141L370.4,141z"/>
								</g>
							</g>
							<g>
								<g>
									<path d="M355.4,140.9c0.4-1,2.6-1.8,3.5-2c1.4-0.3,3.2-0.2,3.8,1.5c0.5,1.3,2.6,0.8,2.1-0.6c-0.8-2.3-3-3.5-5.4-3.2
										c-2.2,0.2-5.3,1.5-6.1,3.8C352.8,141.7,354.9,142.2,355.4,140.9L355.4,140.9z"/>
								</g>
							</g>
							<g>
								<g>
									<path d="M378.7,135c0.1-2.8,5.8-6.1,7.8-3.5c0.8,1.1,2.7,0,1.9-1.1c-1.6-2.1-4.2-2.5-6.6-1.5c-2.4,1-5.2,3.3-5.3,6.1
										C376.5,136.4,378.7,136.4,378.7,135L378.7,135z"/>
								</g>
							</g>
							<g>
								<g>
									<path d="M355.4,140.1c-0.4-0.6-0.9-1-1.6-1.3c-0.6-0.2-1.2,0.2-1.3,0.8c-0.2,0.6,0.2,1.1,0.8,1.3c0.1,0,0.2,0.1,0.3,0.3
										C354.3,142.4,356.2,141.3,355.4,140.1L355.4,140.1z"/>
								</g>
							</g>
							<g>
								<g>
									<path d="M378.2,133.8c-0.4-0.2-0.8-0.4-1.2-0.7c-0.5-0.3-1.2-0.1-1.5,0.4c-0.3,0.5-0.1,1.2,0.4,1.5
										c0.5,0.4,1.1,0.7,1.8,0.9c0.6,0.2,1.2-0.2,1.3-0.8C379.1,134.6,378.7,134,378.2,133.8L378.2,133.8z"/>
								</g>
							</g>
							<g>
								<g>
									<path d="M357.3,139.5c-0.1,1.2,0.2,2.4,1,3.3c0.7,0.9,2,1.7,3,0.9c0.9-0.7,1-2.1,1-3.1c0-1.3-0.5-2.6-1.2-3.7
										c-0.8-1.2-2.7-0.1-1.9,1.1c0.7,1,1,2.2,0.9,3.4c0,0.1,0,0.2-0.1,0.3c-0.1,0.3,0,0.3,0.4,0c0,0-0.6-0.6-0.6-0.6
										c-0.4-0.5-0.4-1.1-0.3-1.7C359.6,138.1,357.4,138.1,357.3,139.5L357.3,139.5z"/>
								</g>
							</g>
							<g>
								<g>
									<path d="M381,131c-0.2,1.2-0.3,2.5,0.4,3.5c0.6,0.9,1.7,1.4,2.7,1.1c2.3-0.6,2.1-3.8,1.7-5.6c-0.3-1.4-2.4-0.8-2.1,0.6
										c0.1,0.6,0.2,1.1,0.2,1.7c0,0.3,0,0.9-0.2,1.1c-0.7,0.5-0.6-1.6-0.6-1.9c0.1-0.6-0.1-1.2-0.8-1.3
										C381.8,130.1,381.1,130.4,381,131L381,131z"/>
								</g>
							</g>
							<g>
								<g>
									<path d="M387.7,136.6c0.6-0.4,1.1-0.8,1.6-1.3c1-1-0.5-2.5-1.5-1.5c-0.4,0.4-0.8,0.7-1.2,0.9
										C385.4,135.5,386.5,137.4,387.7,136.6L387.7,136.6z"/>
								</g>
							</g>
							<g>
								<g>
									<path d="M356.1,146.4c0.7,0.2,1.4,0.3,2.1,0.3c1.4,0,1.4-2.2,0-2.2c-0.5,0-1-0.1-1.5-0.3
										C355.4,143.9,354.8,146,356.1,146.4L356.1,146.4z"/>
								</g>
							</g>
						</g>
						<g>
							<g>
								<path d="M364.4,98.6c1.2,7.3,0.9,14.3-2,21.1c-2.5,5.8-6.2,10.8-9.9,15.9c-0.8,1.1,1.1,2.2,1.9,1.1
									c4.3-5.8,8.6-11.8,11-18.6c2.4-6.6,2.2-13.2,1.1-20C366.2,96.6,364.1,97.2,364.4,98.6L364.4,98.6z"/>
							</g>
						</g>
						<g>
							<g>
								<path d="M363.9,91.3c-8.8-1.3-16.8,6.2-21.3,13.1c-6.1,9.3-5,18.9-6.1,29.4c-1.3,11.8-9.4,21.3-10.6,33.2
									c-0.9,9,0.9,18.7,8.5,24.4c1.1,0.8,2.2-1.1,1.1-1.9c-8.4-6.3-8.8-18.9-6.4-28.2c2.1-8.3,7.4-15.3,9-23.7
									c1.5-8.1,0.1-16.5,2.7-24.3c2.8-8.6,12-21.3,22.5-19.8C364.7,93.6,365.3,91.5,363.9,91.3L363.9,91.3z"/>
							</g>
						</g>
						<g>
							<g>
								<path d="M368.5,168.7c-0.7,3-2.3,5.5-4.7,7.5c-1.1,0.9,0.5,2.5,1.5,1.5c2.6-2.2,4.4-5.2,5.2-8.5
									C370.9,167.9,368.8,167.3,368.5,168.7L368.5,168.7z"/>
							</g>
						</g>
						<g>
							<g>
								<path d="M367.2,91.6c10.7-3.9,19.4,4,26.5,11c1,1,2.5-0.6,1.5-1.5c-7.6-7.5-17.2-15.8-28.6-11.6
									C365.3,90,365.9,92.1,367.2,91.6L367.2,91.6z"/>
							</g>
						</g>
						<g>
							<g>
								<path d="M398,129.6c1.6-1.3,4.7-2.4,5.4,0.5c0.3,1.2,0.1,2.7-0.3,3.8c-0.7,2.8-2.4,5.2-4.8,6.9c-1.1,0.8,0,2.7,1.1,1.9
									c3.8-2.8,7-7.9,6.1-12.9c-1-5.1-5.9-4.4-9.1-1.8C395.3,128.9,396.9,130.5,398,129.6L398,129.6z"/>
							</g>
						</g>
						<g>
							<g>
								<path d="M392.5,101.4c4.6,3.6,8.1,10.5,9.6,15.9c0.4,1.3,2.5,0.8,2.1-0.6c-1.8-6.1-5.5-13.2-10.7-17.2
									C392.5,98.6,391.4,100.5,392.5,101.4L392.5,101.4z"/>
							</g>
						</g>
						<g>
							<g>
								<path d="M347.4,144.9c0.8,6.4,0.6,11.7-2.3,17.5c-1.8,3.7-3.8,7.3-5,11.3c-2,7.2-1.6,14.8,2.3,21.3c0.7,1.2,2.6,0.1,1.9-1.1
									c-5-8.5-3.4-18.2,0.7-26.7c1.5-3.1,3.4-6.1,4.3-9.4c1.2-4.3,0.8-8.6,0.2-13C349.5,143.5,347.3,143.5,347.4,144.9
									L347.4,144.9z"/>
							</g>
						</g>
						<g>
							<g>
								<path d="M371.2,170.5c1,5.5,0.7,10.9-0.8,16.3c-0.4,1.4,1.7,1.9,2.1,0.6c1.6-5.8,1.9-11.6,0.8-17.5
									C373,168.5,370.9,169.1,371.2,170.5L371.2,170.5z"/>
							</g>
						</g>
						<g>
							<g>
								<path d="M390.4,161.8c1.2,6.4,2.6,13.2,8,17.4c4.2,3.3,9.7,4.4,14.9,5.1c5.9,0.9,12.2,1.2,17.7,3.9
									c8,3.9,12.4,12.2,16.5,19.7c0.7,1.2,2.6,0.1,1.9-1.1c-3.4-6.2-6.9-12.7-12.4-17.3c-4.3-3.6-9.4-5.2-14.9-6.1
									c-5.7-1-11.6-1.2-17.1-3.2c-8.6-3.1-10.9-10.6-12.5-19C392.2,159.8,390.1,160.4,390.4,161.8L390.4,161.8z"/>
							</g>
						</g>
						<g>
							<g>
								<path d="M370.8,185c-8.7,5.1-19.1,6.5-27.5,12.2c-7.8,5.3-10.5,16.1-11.9,25c-0.2,1.4,1.9,2,2.1,0.6c0.8-5,2.1-9.8,4.1-14.5
									c2.3-5.4,5.4-8.7,10.7-11.4c7.7-3.9,16.2-5.5,23.7-9.9C373.1,186.2,372,184.3,370.8,185L370.8,185z"/>
							</g>
						</g>
						<g>
							<g>
								<path d="M422.4,215.8c-3.7,10.9-6.4,20.9-6.9,32.4c-0.1,1.4,2.1,1.4,2.2,0c0.4-11.3,3.2-21.1,6.8-31.8
									C425,215.1,422.9,214.5,422.4,215.8L422.4,215.8z"/>
							</g>
						</g>
						<g>
							<g>
								<path d="M343.4,207.9c-2.2,10.4-5.6,20-4.7,30.8c0.8,9.4,3.9,18.4,8.9,26.5c0.7,1.2,2.6,0.1,1.9-1.1
									c-5.1-8.2-8.2-17.3-8.7-27c-0.5-10,2.6-19,4.7-28.6C345.8,207.1,343.7,206.5,343.4,207.9L343.4,207.9z"/>
							</g>
						</g>
						<g>
							<g>
								<path d="M341.8,252.1c0,8.8,0.8,17.8-0.5,26.5c-1.2,7.9-3.9,15.4-5,23.3c-0.6,4.2-1.3,19,6.5,18c2-0.2,3.3-1.9,4.6-3.3
									c2.7-2.8,5.2-5.8,7.6-8.8c4.6-5.7,9-11.6,14.1-16.9c11-11.6,27.7-21.3,43.5-13c1.2,0.7,2.4-1.2,1.1-1.9
									c-24.3-12.8-45,11.2-58.6,28.1c-2.2,2.8-4.5,5.6-6.9,8.2c-2.4,2.7-6.2,7.1-9,2.2c-3-5.3-0.8-13.5,0.4-18.9
									c1.5-6.9,3.6-13.7,4.2-20.7c0.6-7.6,0.1-15.4,0.1-23C344,250.7,341.8,250.7,341.8,252.1L341.8,252.1z"/>
							</g>
						</g>
						<g>
							<g>
								<path d="M411.6,276.6c1.9,5.1,3.2,10.2,3.9,15.6c0.2,1.4,2.3,0.8,2.1-0.6c-0.7-5.4-2-10.5-3.9-15.6
									C413.2,274.7,411.1,275.3,411.6,276.6L411.6,276.6z"/>
							</g>
						</g>
						<g>
							<g>
								<path d="M416.9,292.3c2.7-11.7,5-23.9,0-35.3c-0.6-1.3-2.4-0.2-1.9,1.1c4.7,10.8,2.3,22.6-0.2,33.6
									C414.5,293,416.6,293.6,416.9,292.3L416.9,292.3z"/>
							</g>
						</g>
						<g>
							<g>
								<path d="M331.5,222.2c-2.3,11.7-7.9,22.1-12.4,33c-2.2,5.3-4.2,10.8-5.2,16.6c-0.4,2.2-0.6,4.3-0.7,6.5
									c-0.3,3.9-1.1,6.3-3.2,9.6c-0.8,1.2,1.1,2.3,1.9,1.1c3-4.5,3.2-7.7,3.7-13c0.6-6.5,2.7-12.7,5.1-18.7
									c4.6-11.4,10.6-22.3,13-34.5C333.9,221.4,331.7,220.9,331.5,222.2L331.5,222.2z"/>
							</g>
						</g>
						<g>
							<g>
								<path d="M415.7,248.7c5.1,7.4,12,13.1,20.2,16.7c1.3,0.6,2.4-1.3,1.1-1.9c-7.9-3.4-14.5-8.8-19.4-15.9
									C416.8,246.5,414.9,247.6,415.7,248.7L415.7,248.7z"/>
							</g>
						</g>
						<g>
							<g>
								<path d="M434.8,265.2c6.9,2.1,20.2,6,25.7-0.7c6.2-7.7,2.5-17.1,3.1-25.9c0.1-1.4-2.1-1.4-2.2,0c-0.5,7.5,2.6,15.3-1.3,22.4
									c-2.4,4.4-6,4.7-10.6,4.6c-4.8-0.2-9.5-1.1-14.1-2.5C434,262.7,433.5,264.8,434.8,265.2L434.8,265.2z"/>
							</g>
						</g>
						<g>
							<g>
								<path d="M447.5,210c-0.7,19-2.3,38.5,2.9,57c0.4,1.4,2.5,0.8,2.1-0.6c-5.1-18.3-3.4-37.7-2.8-56.4
									C449.7,208.6,447.6,208.6,447.5,210L447.5,210z"/>
							</g>
						</g>
						<g>
							<g>
								<g>
									<path d="M450.3,208.8c2.6-11.8,6.3-23.4,10.9-34.5c0.5-1.3-1.6-1.9-2.1-0.6c-4.7,11.2-8.3,22.7-10.9,34.5
										C447.9,209.6,450,210.2,450.3,208.8L450.3,208.8z"/>
								</g>
							</g>
							<g>
								<g>
									<path d="M461.2,174c-1-2.9-2.6-5.5-3.9-8.3c-1.8-3.7-3.5-7.5-5-11.3c-0.5-1.3-2.6-0.7-2.1,0.6c1.3,3.1,2.6,6.2,4,9.3
										c1.6,3.4,3.8,6.7,4.9,10.3C459.6,175.9,461.7,175.3,461.2,174L461.2,174z"/>
								</g>
							</g>
							<g>
								<g>
									<path d="M452.6,154.2c0.6,0.3,1.1,0.5,1.7,0.8c0.2,0.3,0.4,0.7,0.5,1c0.2,0.5,0.4,1,0.8,1.4c0.4,0.6,0.8,1.1,1.6,1.3
										c1.3,0.4,2.6-0.1,4,0.6c2,1.1,2.9,3.4,2.5,5.6c-0.2,1.4,1.9,2,2.1,0.6c0.4-2.3,0-4.7-1.6-6.5c-1.6-1.8-3.4-2-5.6-2.4
										c-2.3-0.5-2.1-3.9-4.5-4.7c-1.6-0.6-3.1,0.2-3.6,1.8C450,155,452.2,155.6,452.6,154.2L452.6,154.2z"/>
								</g>
							</g>
							<g>
								<g>
									<path d="M457.8,157c0.3-7.3,1.8-14.2,4.5-21c0.5-1.3-1.6-1.9-2.1-0.6c-2.7,7-4.2,14.1-4.5,21.6
										C455.5,158.4,457.7,158.4,457.8,157L457.8,157z"/>
								</g>
							</g>
							<g>
								<g>
									<path d="M461.6,135.4c2.3,4.2,2.3,9,0,13.2c-0.7,1.2,1.2,2.3,1.9,1.1c2.7-4.9,2.7-10.5,0-15.4
										C462.8,133.1,460.9,134.2,461.6,135.4L461.6,135.4z"/>
								</g>
							</g>
							<g>
								<g>
									<path d="M464.7,147.9c1.3-4.5,3.8-8.2,7.4-11.2c-0.6-0.1-1.1-0.1-1.7-0.2c1.8,3.9,0.3,8-1.1,11.8c-0.5,1.3,1.6,1.9,2.1,0.6
										c1.6-4.5,3-8.9,0.9-13.5c-0.3-0.7-1.2-0.6-1.7-0.2c-3.9,3.2-6.6,7.3-8,12.1C462.2,148.6,464.3,149.2,464.7,147.9
										L464.7,147.9z"/>
								</g>
							</g>
							<g>
								<g>
									<path d="M471.5,147.8c1.5-2.1,3.1-4.2,4.8-6.1c-0.6-0.2-1.2-0.3-1.8-0.5c1.5,4.8-0.7,9.1-3.2,13c-0.8,1.2,1.1,2.3,1.9,1.1
										c2.9-4.4,5.2-9.4,3.4-14.7c-0.2-0.7-1.3-1.1-1.8-0.5c-1.8,2.1-3.5,4.3-5.1,6.6C468.8,147.8,470.7,148.9,471.5,147.8
										L471.5,147.8z"/>
								</g>
							</g>
							<g>
								<g>
									<path d="M474.9,153.5c0.7-0.5,1.3-0.9,2-1.4c-0.4-0.3-0.9-0.5-1.3-0.8c1,5-1.7,10-3.4,14.6c-0.5,1.3,1.6,1.9,2.1,0.6
										c2-5.1,4.5-10.2,3.4-15.8c-0.1-0.6-0.8-0.9-1.3-0.8c-1.5,0.4-2.4,1.1-3.3,2.4C472.3,153.6,474.2,154.7,474.9,153.5
										L474.9,153.5z"/>
								</g>
							</g>
							<g>
								<g>
									<path d="M472.3,166.8c0,3.7,0,7.7-2.7,10.5c-1,1,0.6,2.6,1.5,1.5c3.1-3.3,3.3-7.8,3.3-12.1
										C474.5,165.4,472.3,165.4,472.3,166.8L472.3,166.8z"/>
								</g>
							</g>
							<g>
								<g>
									<path d="M468.5,177.2c0.1,12.4-0.3,24.8-1.2,37.1c-0.4,5.3-1,10.6-1.5,15.9c-0.4,4.3-1.7,6.4-6.2,7.6
										c-3.9,1.1-8.3,0.8-11.4-1.9c-1.1-0.9-2.6,0.6-1.5,1.5c4.3,3.8,9.8,3.7,15.1,2c5-1.6,5.7-4.9,6.2-9.9
										c1.8-17.5,2.8-34.9,2.6-52.4C470.7,175.8,468.5,175.8,468.5,177.2L468.5,177.2z"/>
								</g>
							</g>
						</g>
						<g>
							<g>
								<path d="M448.6,207.7c-8,6.1-13.8,14.2-16.7,23.9c-0.4,1.3,1.7,1.9,2.1,0.6c2.8-9.1,8.2-16.8,15.7-22.5
									C450.8,208.8,449.7,206.9,448.6,207.7L448.6,207.7z"/>
							</g>
						</g>
						<g>
							<g>
								<path d="M424.5,217.1c3.5-5.7,8.4-10.2,14.4-13.2c1.3-0.6,0.2-2.5-1.1-1.9c-6.3,3.2-11.5,8-15.2,14
									C421.8,217.2,423.7,218.3,424.5,217.1L424.5,217.1z"/>
							</g>
						</g>
						<g>
							<g>
								<path d="M423.8,256.8c-0.4,5.4-2.4,10.4-5.9,14.5c-0.9,1.1,0.6,2.6,1.5,1.5c3.9-4.6,6.1-10.1,6.6-16.1
									C426.1,255.4,423.9,255.4,423.8,256.8L423.8,256.8z"/>
							</g>
						</g>
						<g>
							<g>
								<path d="M367.3,188.2c-0.6,3.5-3.2,11.5-0.2,14.3c2.6,2.4,7.3,0.1,9.9-0.9c10.5-4.4,21.5-9.9,25.7-21.2
									c0.5-1.3-1.6-1.9-2.1-0.6c-2.9,7.7-9.4,12.6-16.5,16.1c-3,1.5-7.7,4.5-11,4.8c-4.1,0.4-5-0.8-4.7-4.1
									c0.2-2.6,0.6-5.2,1.1-7.8C369.7,187.4,367.6,186.8,367.3,188.2L367.3,188.2z"/>
							</g>
						</g>
						<g>
							<g>
								<path d="M360.7,190.8c0.1,4.6-0.7,11.1,2.5,15c3.2,4,8.4,2.8,12.5,1.1c12.9-5.3,24.3-13.9,33.6-24.2c0.9-1-0.6-2.6-1.5-1.5
									c-6.6,7.3-14.2,13.7-22.8,18.7c-3.9,2.3-8.8,5.4-13.2,6.2c-9.5,1.7-8.7-8.8-8.8-15.2C362.9,189.4,360.7,189.4,360.7,190.8
									L360.7,190.8z"/>
							</g>
						</g>
						<g>
							<g>
								<path d="M342.3,261.6c-13.2,16-27.9,30.6-43.9,43.7c-1.1,0.9,0.5,2.4,1.5,1.5c16-13.1,30.7-27.7,43.9-43.7
									C344.7,262.1,343.2,260.5,342.3,261.6L342.3,261.6z"/>
							</g>
						</g>
						<g>
							<g>
								<path d="M298.3,305.8c-0.1,15.3,0.7,30.6,2.6,45.9c0.2,1.4,2.4,1.4,2.2,0c-1.9-15.2-2.8-30.5-2.6-45.9
									C300.5,304.4,298.3,304.4,298.3,305.8L298.3,305.8z"/>
							</g>
						</g>
						<g>
							<g>
								<path d="M300.5,351.1c0.5,2.7,1.1,5.4,1.6,8.2c0.1,0.8,1.3,1.1,1.8,0.5c2.9-3.6,5.7-7.3,9-10.5c3-3,6.7-5.3,9.3-8.6
									c6-7.5,11-14.8,18.6-20.9c1.1-0.9-0.5-2.4-1.5-1.5c-7,5.6-12.4,12.2-17.6,19.5c-2.7,3.8-6.4,6.3-9.7,9.5
									c-3.6,3.4-6.6,7.3-9.6,11.1c0.6,0.2,1.2,0.3,1.8,0.5c-0.5-2.7-1.1-5.4-1.6-8.2C302.3,349.2,300.2,349.7,300.5,351.1
									L300.5,351.1z"/>
							</g>
						</g>
						<g>
							<g>
								<path d="M297.4,304.8c-0.9,0.1-1.9,0.3-2.8,0.4c-0.6,0.1-0.9,0.8-0.8,1.3c0.2,0.6,0.8,0.8,1.3,0.8c0.9-0.1,1.9-0.3,2.8-0.4
									c0.6-0.1,0.9-0.8,0.8-1.3C298.5,304.9,298,304.7,297.4,304.8L297.4,304.8z"/>
							</g>
						</g>
						<g>
							<g>
								<path d="M293.9,306.6c-0.8,16.9-0.3,33.8,1.5,50.7c0.1,1.4,2.3,1.4,2.2,0c-1.8-16.8-2.3-33.7-1.5-50.7
									C296.2,305.2,294,305.2,293.9,306.6L293.9,306.6z"/>
							</g>
						</g>
						<g>
							<g>
								<path d="M297,358.7c1.5,0.5,2.9,1.1,4.4,1.6c1.3,0.5,1.9-1.6,0.6-2.1c-1.5-0.5-2.9-1.1-4.4-1.6
									C296.2,356.1,295.7,358.2,297,358.7L297,358.7z"/>
							</g>
						</g>
						<g>
							<g>
								<path d="M296.2,306.3c4.9-9,14.9-14.2,22.1-21.2c8-7.8,15.1-16.4,24.4-22.7c1.2-0.8,0.1-2.7-1.1-1.9
									c-9.4,6.4-16.7,15.1-24.8,23c-7.4,7.2-17.4,12.4-22.4,21.6C293.6,306.5,295.5,307.6,296.2,306.3L296.2,306.3z"/>
							</g>
						</g>
						<g>
							<g>
								<path d="M359.6,311.5c-1.5,7.3-1.9,14.6-1.2,22c0.1,1.4,2.3,1.4,2.2,0c-0.7-7.2-0.3-14.3,1.2-21.4
									C362,310.7,359.9,310.1,359.6,311.5L359.6,311.5z"/>
							</g>
						</g>
						<g>
							<g>
								<path d="M362.7,354.2c6.3,17.5,11.1,35.5,14.3,53.9c0.2,1.4,2.3,0.8,2.1-0.6c-3.2-18.4-8-36.4-14.3-53.9
									C364.3,352.4,362.2,352.9,362.7,354.2L362.7,354.2z"/>
							</g>
						</g>
						<g>
							<g>
								<path d="M414.4,286.4c3,13.9,6.8,27.9,8.7,42c1.9,14.7,0.3,29.4-4.6,43.3c-0.5,1.3,1.6,1.9,2.1,0.6
									c4.9-13.8,6.6-28.5,4.8-43.1c-1.8-14.6-5.7-29-8.9-43.4C416.2,284.4,414.1,285,414.4,286.4L414.4,286.4z"/>
							</g>
						</g>
						<g>
							<g>
								<path d="M416.6,343.2c1.9,25.1,2.5,50.3,1.8,75.5c0,1.4,2.1,1.4,2.2,0c0.7-25.2,0.1-50.4-1.8-75.5
									C418.7,341.8,416.5,341.8,416.6,343.2L416.6,343.2z"/>
							</g>
						</g>
						<g>
							<g>
								<path d="M423.3,357.2c2.9,35.5,4.2,71.2,3.7,106.9c0,1.4,2.2,1.4,2.2,0c0.5-35.7-0.7-71.3-3.7-106.9
									C425.4,355.9,423.2,355.8,423.3,357.2L423.3,357.2z"/>
							</g>
						</g>
						<g>
							<g>
								<path d="M375.6,402.6c2.2,17.2,3.5,34.5,3.8,51.9c0.2,16-1.8,32.6,2.6,48.2c0.4,1.4,2.5,0.8,2.1-0.6
									c-4.5-16-2.2-33.2-2.5-49.6c-0.3-16.7-1.6-33.3-3.7-49.9C377.6,401.2,375.4,401.2,375.6,402.6L375.6,402.6z"/>
							</g>
						</g>
						<g>
							<g>
								<path d="M380.9,500.6c1.6,6.8,2.6,14.5,5.5,20.9c0.6,1.3,2.5,0.2,1.9-1.1c-2.8-6.2-3.7-13.8-5.3-20.4
									C382.7,498.7,380.6,499.2,380.9,500.6L380.9,500.6z"/>
							</g>
						</g>
						<g>
							<g>
								<path d="M426.4,461.7c1.4,18.9,1,37.8-1.4,56.6c-0.2,1.4,2,1.4,2.2,0c2.4-18.8,2.9-37.7,1.4-56.6
									C428.5,460.3,426.3,460.3,426.4,461.7L426.4,461.7z"/>
							</g>
						</g>
					</g>
					<g>
						<g>
							<path d="M333.1,301.1c-2.5-4-6.5-6.7-10.8-3.5c-3.9,2.9-6,8.7-5.5,13.4c0.7,6,6.2,9.8,11.8,6.6
								C334.2,314.5,335.9,306.7,333.1,301.1c-0.6-1.3-2.5-0.1-1.9,1.1c2.2,4.4,1,10.6-3.4,13.4c-5.6,3.5-9.5-2.2-8.8-7.4
								c0.4-3,1.7-6.2,3.9-8.2c3.3-3.1,6.3-1.1,8.3,2.3C331.9,303.4,333.8,302.3,333.1,301.1z"/>
						</g>
					</g>
					<g>
						<g>
							<path d="M397.8,133.8c0.7-0.7,1.4-1.2,2.3-1.6c0.6-0.2,0.9-0.7,0.8-1.3c-0.1-0.5-0.8-1-1.3-0.8c-1.3,0.4-2.4,1.1-3.3,2.1
								C395.2,133.2,396.8,134.8,397.8,133.8L397.8,133.8z"/>
						</g>
					</g>
					<g>
						<g>
							<path d="M397.8,137.9c0.9-0.3,1.6-0.7,2.3-1.3c0.5-0.4,0.4-1.2,0-1.5c-0.4-0.4-1.1-0.4-1.5,0c-0.4,0.3-0.9,0.6-1.3,0.7
								C395.9,136.3,396.4,138.4,397.8,137.9L397.8,137.9z"/>
						</g>
					</g>
					<g>
						<g>
							<path d="M366.2,109.2c6,8.2,15.6,10.4,25.3,11.2c1.4,0.1,1.4-2.1,0-2.2c-8.8-0.7-17.9-2.5-23.4-10.1
								C367.2,106.9,365.3,108,366.2,109.2L366.2,109.2z"/>
						</g>
					</g>
					<g>
						<g>
							<path d="M349.6,156.4c1.4,1,3.1,1.6,4.8,1.7c1.4,0.1,1.4-2.1,0-2.2c-1.4-0.1-2.6-0.5-3.7-1.4
								C349.6,153.7,348.5,155.6,349.6,156.4L349.6,156.4z"/>
						</g>
					</g>
					<g>
						<path d="M384.1,169.6c-2.6,3.8-6.8,6.4-11.4,7.1c0.4-2.3,0-4.3-0.6-6.6c3.1,1.3,6.7,0.7,9.9-0.5
							C382.7,169.3,383.5,169,384.1,169.6z"/>
					</g>
					<g>
						<g>
							<path d="M356.7,112c-0.1,5.9-1.7,11.4-4.9,16.4c-0.8,1.2,1.1,2.3,1.9,1.1c3.4-5.3,5.1-11.2,5.2-17.5
								C358.9,110.6,356.8,110.6,356.7,112L356.7,112z"/>
						</g>
					</g>
					<g>
						<g>
							<path d="M401.2,115.1c3.5,9.7,6.9,19.4,6.6,29.8c-0.2,10.1-3.1,19.9-6.2,29.5c-0.4,1.3,1.7,1.9,2.1,0.6
								c3.2-9.7,6.1-19.7,6.3-30.1c0.2-10.6-3.1-20.5-6.7-30.4C402.9,113.2,400.8,113.8,401.2,115.1L401.2,115.1z"/>
						</g>
					</g>
					<g>
						<g>
							<path d="M402.2,173.1c-0.9,1.6-1.1,3.6-0.5,5.4c0.5,1.3,2.6,0.7,2.1-0.6c-0.4-1.3-0.4-2.5,0.3-3.7
								C404.8,172.9,402.9,171.8,402.2,173.1L402.2,173.1z"/>
						</g>
					</g>
					<g>
						<g>
							<path d="M347.2,109.8c-2.8,8.6-5.3,17.4-2.9,26.4c0.4,1.4,2.5,0.8,2.1-0.6c-2.3-8.6,0.2-17,2.9-25.2
								C349.7,109.1,347.6,108.5,347.2,109.8L347.2,109.8z"/>
						</g>
					</g>
					<g>
						<g>
							<path d="M358.3,163.3c-1.5,7.5-6.9,13.6-5.8,21.7c0.2,1.4,2.3,0.8,2.1-0.6c-1-7.4,4.5-13.5,5.8-20.5
								C360.7,162.5,358.6,161.9,358.3,163.3L358.3,163.3z"/>
						</g>
					</g>
					<g>
						<g>
							<path d="M387.1,191.3c2.2-0.2,4.4-0.3,6.7-0.2c1.4,0.1,1.4-2.1,0-2.2c-2.2-0.1-4.5-0.1-6.7,0.2
								C385.7,189.2,385.7,191.4,387.1,191.3L387.1,191.3z"/>
						</g>
					</g>
					<g>
						<g>
							<path d="M368.8,192.5c1.2-0.2,2.3-0.3,3.5-0.2c1.4,0.1,1.4-2.1,0-2.2c-1.4-0.1-2.7,0-4.1,0.2
								C366.8,190.6,367.4,192.7,368.8,192.5L368.8,192.5z"/>
						</g>
					</g>
					<path d="M453.3,265.5c0.4,0.3,0.9,0.3,1.4,0.2c2.9-0.3,5.4-2.4,6.7-5c1.4-2.6,1.8-5.5,1.9-8.4c0.3-4.8,0-9.6-0.8-14.3
						c-4.9,0.8-9.9,0.7-14.7-0.2c-0.1,9.2-1.2,21,3.6,28.9C451.6,267,453,265.3,453.3,265.5z"/>
					<g>
						<g>
							<path d="M371.5,201.7c-3.6,11.3-6.4,22.9-8.2,34.7c-0.2,1.4,1.9,2,2.1,0.6c1.8-11.8,4.5-23.3,8.2-34.7
								C374.1,201,372,200.4,371.5,201.7L371.5,201.7z"/>
						</g>
					</g>
					<g>
						<g>
							<path d="M374.7,211.8c-0.2,0-0.3,0-0.5,0c-1.4,0-1.4,2.2,0,2.2c0.2,0,0.3,0,0.5,0C376.1,214,376.1,211.8,374.7,211.8
								L374.7,211.8z"/>
						</g>
					</g>
					<g>
						<g>
							<path d="M372.8,222.6c1.4,0,1.4-2.2,0-2.2C371.4,220.4,371.4,222.6,372.8,222.6L372.8,222.6z"/>
						</g>
					</g>
					<g>
						<g>
							<path d="M371.4,233.6c1.4,0,1.4-2.2,0-2.2C370,231.4,370,233.6,371.4,233.6L371.4,233.6z"/>
						</g>
					</g>
					<g>
						<g>
							<path d="M338.7,315.6c-12.2,33.9-20.5,69-24.9,104.8c-0.2,1.4,2,1.4,2.2,0c4.4-35.6,12.7-70.5,24.8-104.2
								C341.3,314.8,339.2,314.3,338.7,315.6L338.7,315.6z"/>
						</g>
					</g>
					<g>
						<g>
							<path d="M314.5,418.6c-2.7,8.3-4.8,16.7-6.2,25.3c-1.5,8.7-1.9,17.3-4.4,25.8c-2.2,7.6-4.4,14.8-4.9,22.7
								c-0.5,9.6,0,19.1,1.2,28.6c0.2,1.4,2.4,1.4,2.2,0c-1.2-9.2-1.7-18.4-1.2-27.6c0.4-8.7,3-16.5,5.3-24.9
								c2.2-7.9,2.6-16,3.9-24.1c1.4-8.6,3.6-17,6.2-25.3C317,417.9,314.9,417.3,314.5,418.6L314.5,418.6z"/>
						</g>
					</g>
					<g>
						<g>
							<path d="M371.1,380.6c-1.3,5.7-4.9,10-7.2,15.3c-2.7,6.1-3.2,12.8-5.9,19c-2.7,6.3-7.3,11.5-10,17.8
								c-2.4,5.6-3.4,11.6-3.3,17.7c0,1.4,2.2,1.4,2.2,0c-0.1-7.6,1.6-14.7,5.4-21.3c3-5.3,6.6-10.1,8.8-15.9
								c2.2-6,2.8-12.7,5.8-18.4c2.4-4.6,5.2-8.6,6.4-13.7C373.5,379.8,371.4,379.2,371.1,380.6L371.1,380.6z"/>
						</g>
					</g>
					<g>
						<g>
							<path d="M364.5,393.3c-3.3,9.8-3.1,20.3-4.5,30.5c-1.6,11.1-3.9,22.1-7.5,32.7c-3.2,9.6-6,18.8-7,28.9
								c-1.1,11.5-4.2,22.6-7.3,33.7c-0.4,1.4,1.7,1.9,2.1,0.6c2.7-9.7,5.7-19.6,6.9-29.7c0.7-5.6,0.9-11.3,2.3-16.8
								c1.4-5.5,3.3-10.8,5.1-16.1c3.4-10.3,5.8-21,7.3-31.7c1.5-10.4,1.3-21.4,4.7-31.4C367.1,392.6,365,392,364.5,393.3
								L364.5,393.3z"/>
						</g>
					</g>
					<g>
						<g>
							<path d="M405.3,276.6c3,10.1,4.7,20.2,5.6,30.7c0.1,1.4,2.3,1.4,2.2,0c-0.9-10.7-2.6-21-5.7-31.3
								C407,274.7,404.9,275.2,405.3,276.6L405.3,276.6z"/>
						</g>
					</g>
					<g>
						<g>
							<path d="M336.5,325.9c3.6,0.3,6.9-2.1,8.1-5.5c0.4-1.3-1.7-1.9-2.1-0.6c-0.9,2.5-3.3,4.1-6,3.9
								C335.1,323.7,335.1,325.8,336.5,325.9L336.5,325.9z"/>
						</g>
					</g>
					<g>
						<g>
							<path d="M385.5,522c0.4,9.9,4.5,18.8,11.7,25.6c1,1,2.6-0.6,1.5-1.5c-6.8-6.4-10.7-14.7-11.1-24
								C387.7,520.6,385.5,520.5,385.5,522L385.5,522z"/>
						</g>
					</g>
					<g>
						<g>
							<path d="M388.8,538.4c0.4,5.8,2.8,11,6.9,15c1,1,2.6-0.6,1.5-1.5c-3.7-3.6-5.9-8.2-6.3-13.4C390.9,537,388.7,537,388.8,538.4
								L388.8,538.4z"/>
						</g>
					</g>
					<g>
						<g>
							<path d="M395.7,552.1c11.9,1.2,23.7,0.5,35.3-2c1.4-0.3,0.8-2.4-0.6-2.1c-11.5,2.4-23.1,3-34.7,1.9
								C394.3,549.8,394.3,552,395.7,552.1L395.7,552.1z"/>
						</g>
					</g>
					<g>
						<g>
							<path d="M431.4,548.4c-0.6-6.6-1.5-13.1-2.8-19.5c-0.3-1.4-2.4-0.8-2.1,0.6c1.2,6.3,2.1,12.6,2.7,18.9
								C429.3,549.8,431.5,549.8,431.4,548.4L431.4,548.4z"/>
						</g>
					</g>
					<g>
						<g>
							<path d="M428,530.8c0.8-6.1,0.9-12.1,0.2-18.1c-0.2-1.4-2.3-1.4-2.2,0c0.7,5.9,0.7,11.7-0.1,17.6
								C425.7,531.6,427.8,532.2,428,530.8L428,530.8z"/>
						</g>
					</g>
					<g>
						<g>
							<path d="M395,551.2c1.5,11.4,3.3,22.7,5.4,34c0.3,1.4,2.4,0.8,2.1-0.6c-2.1-11.1-3.9-22.2-5.3-33.4
								C397,549.9,394.9,549.8,395,551.2L395,551.2z"/>
						</g>
					</g>
					<g>
						<g>
							<path d="M410.3,571.9c3.7-6.8,13.5-8.1,20.5-7c8.5,1.4,15.5,8,14.8,17.1c-0.1,1.4,2.1,1.4,2.2,0c0.7-9.6-6.7-17.2-15.8-19.1
								c-8.1-1.6-19.3,0-23.6,7.9C407.7,572,409.6,573.1,410.3,571.9L410.3,571.9z"/>
						</g>
					</g>
					<g>
						<g>
							<path d="M445.5,581c-6.9,2.6-14,2.8-21.3,2.9c-7.3,0.1-14.7,0.2-22,0.3c-1.4,0-1.4,2.2,0,2.2c8-0.1,15.9-0.2,23.9-0.3
								c6.9-0.1,13.6-0.5,20.1-2.9C447.4,582.6,446.8,580.5,445.5,581L445.5,581z"/>
						</g>
					</g>
					<g>
						<g>
							<path d="M427.5,549.9c0.4,4.9,1.6,10,4.2,14.2c0.8,1.2,2.6,0.1,1.9-1.1c-2.5-3.8-3.5-8.6-3.9-13.1
								C429.6,548.5,427.4,548.5,427.5,549.9L427.5,549.9z"/>
						</g>
					</g>
					<g>
						<g>
							<path d="M299.6,520.2c-0.6,6.1,5,11.7,11.1,11c1.4-0.2,1.4-2.4,0-2.2c-5,0.6-9.5-3.8-9-8.8
								C302,518.8,299.8,518.8,299.6,520.2L299.6,520.2z"/>
						</g>
					</g>
					<g>
						<g>
							<path d="M301.7,527.2c-0.1,5,4,7.2,8.4,8.1c7.2,1.4,14.8,1.9,22.2,2.5c1.4,0.1,1.4-2.1,0-2.2c-4.3-0.3-8.6-0.7-12.9-1.3
								c-4.6-0.5-15.6-0.2-15.5-7.2C303.9,525.8,301.7,525.8,301.7,527.2L301.7,527.2z"/>
						</g>
					</g>
					<g>
						<g>
							<path d="M331.5,535.6c4.9-2.6,7.8-7.7,7.6-13.2c-0.1-1.4-2.2-1.4-2.2,0c0.2,4.8-2.3,9.1-6.5,11.3
								C329.1,534.3,330.2,536.2,331.5,535.6L331.5,535.6z"/>
						</g>
					</g>
					<g>
						<g>
							<path d="M300.6,528.5c-2.1,6-4.3,11.9-6.4,17.9c-0.5,1.3,1.6,1.9,2.1,0.6c2.1-6,4.3-11.9,6.4-17.9
								C303.2,527.8,301.1,527.2,300.6,528.5L300.6,528.5z"/>
						</g>
					</g>
					<g>
						<g>
							<path d="M293.9,545.3c-10.3,4.5-21.2,7.2-32.5,8c-1.4,0.1-1.4,2.3,0,2.2c11.7-0.8,22.9-3.6,33.6-8.3
								C296.3,546.6,295.2,544.7,293.9,545.3L293.9,545.3z"/>
						</g>
					</g>
					<g>
						<g>
							<path d="M261.6,553.5c-4.1,2.8-10.9,8-7.4,13.6c3.3,5.4,12.3,7,17.9,8.2c9.2,2,18.7,3,28.1,3.7c6.3,0.5,13.7,2,20,1.3
								c5.4-0.6,5.8-5.7,6.7-10.1c1.2-6,2.4-12.1,3.5-18.1c1.1-5.6,1.7-11.6,3.9-16.9c0.5-1.3-1.6-1.9-2.1-0.6
								c-3.2,7.6-3.8,16.6-5.4,24.6c-0.8,4.1-1.6,8.2-2.4,12.3c-0.5,2.4-0.8,5.5-3.3,6.5c-2.2,0.8-5.7-0.1-8.1-0.2
								c-2.8-0.2-5.6-0.3-8.3-0.5c-7.9-0.6-15.9-1.3-23.7-2.5c-6.9-1.1-14.6-2.2-20.8-5.5c-8.1-4.3-3.2-9.9,2.6-13.8
								C263.8,554.6,262.7,552.7,261.6,553.5L261.6,553.5z"/>
						</g>
					</g>
					<g>
						<g>
							<path d="M407.9,551.8c0.6,5,1.3,10.7,4.2,15c0.8,1.2,2.7,0.1,1.9-1.1c-2.6-3.9-3.4-9.3-3.9-13.9
								C409.9,550.4,407.7,550.4,407.9,551.8L407.9,551.8z"/>
						</g>
					</g>
					<g>
						<g>
							<path d="M420.3,550.8c0.3,2.7,0.8,5.3,1.7,7.9c0.7,1.9,1.3,4,3.1,5c1.2,0.7,2.3-1.2,1.1-1.9c-1.6-0.9-2.1-3.7-2.7-5.3
								c-0.6-1.8-0.9-3.7-1.1-5.6C422.4,549.4,420.2,549.4,420.3,550.8L420.3,550.8z"/>
						</g>
					</g>
					<g>
						<g>
							<path d="M411.3,560.7c3.6-1.6,7.5-1.7,11.3-0.6c1.4,0.4,1.9-1.7,0.6-2.1c-4.4-1.3-8.8-0.9-13,0.8
								C408.9,559.4,410.1,561.2,411.3,560.7L411.3,560.7z"/>
						</g>
					</g>
					<g>
						<g>
							<path d="M409.1,555.8c2.1-0.5,4.1-0.8,6.3-0.8c0.6,0,4.9-0.2,5.1,0.5c0.4,1.3,2.5,0.8,2.1-0.6c-0.6-1.9-2.7-1.9-4.4-2
								c-3.3-0.2-6.5,0.1-9.7,0.9C407.1,554,407.7,556.1,409.1,555.8L409.1,555.8z"/>
						</g>
					</g>
					<g>
						<g>
							<path d="M427.1,564.5c5.5,4.7,7.9,11.9,6.1,18.9c-0.3,1.4,1.8,1.9,2.1,0.6c2-7.8-0.5-15.8-6.6-21.1
								C427.6,562,426.1,563.5,427.1,564.5L427.1,564.5z"/>
						</g>
					</g>
					<g>
						<g>
							<path d="M400.1,583c-0.1,2.5-0.3,7.4,2,9.2c2.5,2,9.4,0.9,12.3,0.9c10.6,0,21-1.3,31.3-3.7c0.5-0.1,0.7-0.6,0.8-1.1
								c0.3-2.2,0.7-4.1,1.3-6.2c0.4-1.3-1.7-1.9-2.1-0.6c-1.5,4.9-0.7,5.9-6.2,7c-4.6,0.9-9.2,1.5-13.8,1.9
								c-4.1,0.4-8.2,0.5-12.3,0.5c-1.8,0-3.9,0.2-5.7-0.1c-4.9-0.9-5.6-3.1-5.5-7.8C402.3,581.6,400.1,581.6,400.1,583L400.1,583z"
								/>
						</g>
					</g>
					<g>
						<g>
							<path d="M294.6,547.3c2.6,1.2,5.3,2.3,8,3.2c1.3,0.5,1.9-1.6,0.6-2.1c-2.5-0.9-5-1.9-7.5-3
								C294.4,544.9,293.3,546.7,294.6,547.3L294.6,547.3z"/>
						</g>
					</g>
					<g>
						<g>
							<path d="M304.1,550.2c2-5.1,3.9-10.1,5.8-15.3c0.5-1.3-1.6-1.9-2.1-0.6c-1.8,5.1-3.8,10.2-5.8,15.3
								C301.5,550.9,303.6,551.5,304.1,550.2L304.1,550.2z"/>
						</g>
					</g>
					<g>
						<g>
							<path d="M297.7,541c2.2-0.3,4.4,0.5,5.6,2.4c0.8,1.2,2.7,0.1,1.9-1.1c-1.7-2.5-4.5-3.9-7.5-3.5
								C296.3,539,296.3,541.2,297.7,541L297.7,541z"/>
						</g>
					</g>
					<g>
						<g>
							<path d="M300.6,535.9c1.9-0.4,3.8,0.4,4.8,2.1c0.7,1.2,2.6,0.1,1.9-1.1c-1.5-2.5-4.4-3.8-7.3-3.1
								C298.7,534.1,299.2,536.2,300.6,535.9L300.6,535.9z"/>
						</g>
					</g>
					<g>
						<g>
							<path d="M270.5,554.5c4.8-0.5,11.3,3.6,13.6,7.8c0.7,1.2,2.6,0.1,1.9-1.1c-1.5-2.6-4-4.4-6.4-6c-2.8-1.9-5.7-3.2-9.1-2.8
								C269.1,552.5,269.1,554.7,270.5,554.5L270.5,554.5z"/>
						</g>
					</g>
					<g>
						<g>
							<path d="M278.1,554.2c-7.7,0.4-18.5,5-20.2,13.4c-0.3,1.4,1.8,2,2.1,0.6c1.5-7.5,11.4-11.4,18.1-11.8
								C279.5,556.4,279.5,554.2,278.1,554.2L278.1,554.2z"/>
						</g>
					</g>
					<g>
						<g>
							<path d="M253,563.9c-1.3,6.8,1.3,9.8,7.3,12.8c7.1,3.5,15.3,4.6,23,5.9c9,1.5,18,2.9,27.2,3.4c5.8,0.3,13.2,0,13.8-7.3
								c0.1-1.4-2.1-1.4-2.2,0c-1.6,1.6-3.1,3.3-4.7,4.9c-1.1,0.1-2.2,0.2-3.2,0.3c-1.6,0-3.1-0.1-4.7-0.2c-2.9-0.2-5.8-0.5-8.7-0.8
								c-6.3-0.7-12.6-1.8-18.9-2.8c-4.7-0.8-9.4-1.5-14-2.9c-2.8-0.8-5.5-1.8-8-3.2c-4.2-2.3-5.8-4.9-4.9-9.5
								C255.3,563.1,253.2,562.6,253,563.9L253,563.9z"/>
						</g>
					</g>
					<g>
						<g>
							<path d="M316.1,527c6.9-0.8,13.6-5.6,19.2-9.4c1.2-0.8,0.1-2.7-1.1-1.9c-5.2,3.5-11.8,8.4-18.1,9.1
								C314.7,524.9,314.7,527.1,316.1,527L316.1,527z"/>
						</g>
					</g>
					<g>
						<g>
							<path d="M316.1,420.4c2.8-3,6-5.5,9.6-7.4c1.2-0.6,0.1-2.5-1.1-1.9c-3.8,2-7.2,4.6-10.1,7.7
								C313.6,419.9,315.1,421.4,316.1,420.4L316.1,420.4z"/>
						</g>
					</g>
					<g>
						<g>
							<path d="M321.8,337.2c-1.1,3.2-0.2,7.1,0.4,10.3c0.8,4,1.7,8,3.2,11.8c0.5,1.3,2.6,0.7,2.1-0.6c-1.3-3.1-2.1-6.5-2.8-9.7
								c-0.7-3.4-2-7.8-0.8-11.2C324.3,336.4,322.2,335.8,321.8,337.2L321.8,337.2z"/>
						</g>
					</g>
					<g>
						<g>
							<path d="M353.2,263.1c1.2-1.1,2.6-2,4-2.8c1.3-0.6,0.1-2.5-1.1-1.9c-1.6,0.8-3.1,1.9-4.5,3.1
								C350.6,262.5,352.2,264,353.2,263.1L353.2,263.1z"/>
						</g>
					</g>
					<g>
						<g>
							<path d="M390.2,255.6c4.6,0.1,9,1.3,13,3.6c1.2,0.7,2.3-1.2,1.1-1.9c-4.3-2.5-9.1-3.8-14.1-3.9
								C388.8,253.4,388.8,255.5,390.2,255.6L390.2,255.6z"/>
						</g>
					</g>
					<g>
						<g>
							<path d="M424.6,216.6c-0.9-4.6-0.7-9.2,0.5-13.7c0.4-1.4-1.7-1.9-2.1-0.6c-1.4,4.9-1.5,9.9-0.5,14.9
								C422.7,218.5,424.8,218,424.6,216.6L424.6,216.6z"/>
						</g>
					</g>
					<g>
						<path d="M331.9,226.2c2.7,8.8-0.8,19.2-8.3,24.5c-0.3,0.7-1.4,0.9-1.5,0.1s0.4-1.4,0.9-2C328,242.9,330.3,233.7,331.9,226.2z"
							/>
					</g>
					<g>
						<g>
							<path d="M373.6,158.4c3.7-0.8,6.8-2.9,9.1-5.9c0.8-1.1-1.1-2.2-1.9-1.1c-1.9,2.6-4.6,4.2-7.7,4.9
								C371.7,156.5,372.3,158.6,373.6,158.4L373.6,158.4z"/>
						</g>
					</g>
					<g>
						<g>
							<path d="M377.3,160.9c0.4-0.2,0.8-0.4,1.3-0.5c0.5-0.2,0.7-1,0.4-1.5c-0.3-0.6-1-0.6-1.5-0.4c-0.4,0.2-0.8,0.4-1.3,0.5
								c-0.5,0.2-0.7,1-0.4,1.5C376.1,161.1,376.8,161.2,377.3,160.9L377.3,160.9z"/>
						</g>
					</g>
					<path fill="#E95150" d="M384.6,143.8c-0.2,0.8-0.1,1.6-0.1,2.4c0,1.5,0.2,3.1,1.3,4c1.2,0.9,2.9,0.5,4.3,0
						c1.7-0.6,3.5-1.4,4.2-3.1c0.2-0.4,0.3-0.8,0.3-1.2c0.3-2-0.1-4.2-1.5-5.7s-3.8-2-5.6-1c-0.9,0.5-1.5,1.4-2.1,2.3
						C385.1,142.3,384.8,143,384.6,143.8z"/>
					<path fill="#E95150" d="M361.6,156.6c0.5,0.4,1.2,0.7,1.8,1c1.1,0.5,2.5,1.1,3.6,0.5c1.2-0.6,1.5-2,1.7-3.3
						c0.2-1.5,0.3-3.2-0.7-4.4c-0.2-0.3-0.5-0.5-0.8-0.7c-1.4-1-3.3-1.6-5-1.1c-1.7,0.5-3.1,2.1-2.9,3.9c0.1,0.9,0.5,1.7,1,2.5
						C360.6,155.6,361,156.2,361.6,156.6z"/>
				</g>
				<circle fill="none" stroke="#000000" stroke-width="2.1461" stroke-miterlimit="10" cx="441" cy="89.4" r="10.7"/>
				<circle fill="none" stroke="#000000" stroke-width="2.1461" stroke-miterlimit="10" cx="264.2" cy="479.6" r="10.7"/>
				<circle fill="none" stroke="#E85050" stroke-width="3.1538" stroke-miterlimit="10" cx="461.7" cy="441" r="15.7"/>
				<circle fill="#E85050" cx="288.4" cy="407.9" r="7"/>
				<circle fill="#58C9E7" cx="490.8" cy="242" r="7.8"/>
			</g>
			<g>
				<g>
					<g>
						<path d="M179.5,454.6c3.1-0.4,5.7,1.6,6.5,4.6c0.7,2.8-0.3,5.7-1.7,8.1c-0.7,1.2,1.2,2.3,1.9,1.1c1.9-3.3,3.1-7.4,1.5-11.1
							c-1.4-3.2-4.6-5.3-8.1-4.9C178.1,452.5,178.1,454.7,179.5,454.6L179.5,454.6z"/>
					</g>
				</g>
				<g>
					<g>
						<g>
							<path d="M85.4,456.2c31.8-4.7,64.1-5.1,96-1.4c1.4,0.2,1.4-2,0-2.2c-32.1-3.7-64.6-3.2-96.6,1.5
								C83.5,454.3,84,456.4,85.4,456.2L85.4,456.2z"/>
						</g>
					</g>
					<g>
						<g>
							<path d="M82.6,455.9c-1.5,4.6-0.4,9.4,2.8,12.9c0.9,1,2.5-0.5,1.5-1.5c-2.7-3-3.5-7-2.2-10.8
								C85.2,455.1,83.1,454.5,82.6,455.9L82.6,455.9z"/>
						</g>
					</g>
					<g>
						<g>
							<path d="M84.8,469.3c33-4.5,66.5-4.5,99.5-0.2c1.4,0.2,1.4-2,0-2.2c-33.3-4.4-66.9-4.2-100.1,0.3
								C82.9,467.4,83.5,469.5,84.8,469.3L84.8,469.3z"/>
						</g>
					</g>
					<g>
						<g>
							<path d="M89.8,467.9c0.6,26.3,4.4,52.3,11.1,77.8c0.4,1.4,2.5,0.8,2.1-0.6c-6.7-25.2-10.3-51.1-11-77.2
								C91.9,466.5,89.8,466.5,89.8,467.9L89.8,467.9z"/>
						</g>
					</g>
				</g>
				<g>
					<g>
						<path d="M172.5,546.8c3.6-12.3,4.9-24.5,5-37.2c0.1-7,0.2-14,0.3-21.1c0.1-6.8-0.6-14.3,1.7-20.8c0.5-1.3-1.6-1.9-2.1-0.6
							c-2,5.6-1.6,11.6-1.7,17.5c-0.1,7-0.2,14-0.3,21.1c-0.2,13.8-1,27.1-5,40.5C169.9,547.6,172.1,548.2,172.5,546.8L172.5,546.8z
							"/>
					</g>
				</g>
				<g>
					<g>
						<path d="M95.4,513.4c6.4-5.4,13.5-9.5,21.3-12.3c1.3-0.5,0.7-2.6-0.6-2.1c-8.2,3-15.6,7.3-22.3,12.9
							C92.8,512.7,94.3,514.3,95.4,513.4L95.4,513.4z"/>
					</g>
				</g>
				<g>
					<g>
						<path d="M97.2,522.6c3.4-2,6.9-4.1,10.3-6.1c1.2-0.7,0.1-2.6-1.1-1.9c-3.4,2-6.9,4.1-10.3,6.1C94.9,521.5,96,523.4,97.2,522.6
							L97.2,522.6z"/>
					</g>
				</g>
				<g>
					<g>
						<path d="M98.7,534.6c4.4-0.7,8.5-2.3,12.3-4.6c1.2-0.7,0.1-2.6-1.1-1.9c-3.7,2.3-7.6,3.7-11.8,4.4
							C96.7,532.7,97.3,534.8,98.7,534.6L98.7,534.6z"/>
					</g>
				</g>
				<g>
					<g>
						<path d="M102.2,544.3c2.7-1,5.4-2,8.1-3c1.3-0.5,0.7-2.6-0.6-2.1c-2.7,1-5.4,2-8.1,3C100.3,542.7,100.9,544.8,102.2,544.3
							L102.2,544.3z"/>
					</g>
				</g>
			</g>
			<g>
				<g>
					<path d="M386.6,590.7c-41.5,1.9-83,3.3-124.5,3.5c-21.3,0.1-42.6-0.2-63.8-1.1c-21.4-0.9-42.6-3.8-63.9-4.7
						c-14.2-0.6-28.4,0.6-42.5,2.4c-6.2,0.8-12.4,1.7-18.6,2.5c-4.1,0.6-8.1,1.1-12.2,1.6c-3.9,0.5-8.2,1.6-11.6-0.8
						c-1.2-0.8-2.2,1.1-1.1,1.9c3.8,2.7,8.4,1.7,12.7,1.1c5.9-0.7,11.7-1.6,17.6-2.4c13.3-1.9,26.7-3.7,40.2-4.2
						c22.9-0.9,45.8,2.9,68.7,4.2c43.2,2.4,86.6,1.9,129.9,0.7c23.1-0.6,46.1-1.5,69.1-2.6C388,592.8,388,590.6,386.6,590.7
						L386.6,590.7z"/>
				</g>
			</g>
			<g>
				<g>
					<path d="M455.4,587.8c3.8-0.1,9.2,0.7,12.9-0.4c0.6-0.2,1.5-0.9,1.8-1c-0.1,0-1,0.3,0.2,0.5c1.4,0.2,3.4-0.1,4.8-0.2
						c6.3-0.2,12.5-0.2,18.6-1.3c7.4-1.3,14.5-3.4,22.1-3.5c7.6,0,15.2,1.2,22.7,2.7c14,2.8,27.9,6.5,42.3,5.5
						c1.4-0.1,1.4-2.3,0-2.2c-15.1,1-29.6-3.2-44.2-6c-6.8-1.3-13.7-2.3-20.7-2.3c-6.7,0.1-13,1.6-19.6,2.9
						c-7.1,1.5-14,1.6-21.2,1.8c-2,0.1-4.2-0.1-6.2,0.4c-0.5,0.1-0.6,0.8-0.9,0.8c-0.7,0.2,1.3-0.4,0.3-0.5
						c-4.2-0.3-8.7,0.3-12.9,0.4C454,585.6,454,587.8,455.4,587.8L455.4,587.8z"/>
				</g>
			</g>
			<g>
				<g>
					<path d="M100.5,547c12.3,3.9,25.1,4.9,37.9,4.6c6.5-0.1,12.9-0.5,19.4-1c5.1-0.4,10-1.2,14.4-4c1.2-0.7,0.1-2.6-1.1-1.9
						c-5.1,3.2-10.9,3.6-16.7,3.9c-5.9,0.4-11.8,0.7-17.8,0.8c-12,0.1-24-0.9-35.5-4.6C99.7,544.5,99.1,546.6,100.5,547L100.5,547z"
						/>
				</g>
			</g>
			<path d="M154.9,477.6c7.6-0.1,16.1-0.6,21-6.4c0.8-0.9,1.4-2.4,0.5-3.2c-0.4-0.3-0.9-0.4-1.5-0.5c-27.8-3.2-55.9-3.5-83.7-1
				c0.2,9.3,0.9,18.6,1.9,27.9c3.1-2,4-6,6.1-8.9c4.7-6.6,14.1-7.4,22.2-7.5C132.6,477.9,143.7,477.8,154.9,477.6z"/>
			<g>
				<g>
					<path d="M50,548.9c7.5,1.6,15.1,1.9,22.7,0.7c9.1-1.4,17.8-4.3,27.1-4.7c1.4-0.1,1.4-2.2,0-2.2c-7.6,0.3-14.8,2.2-22.2,3.7
						c-9.1,1.9-17.9,2.3-27,0.3C49.2,546.5,48.6,548.6,50,548.9L50,548.9z"/>
				</g>
			</g>
			<g>
				<g>
					<path d="M174.2,544.5c22.7-0.3,45.5-0.6,68.2-0.9c1.4,0,1.4-2.2,0-2.2c-22.7,0.3-45.5,0.6-68.2,0.9
						C172.8,542.3,172.8,544.5,174.2,544.5L174.2,544.5z"/>
				</g>
			</g>
			<g>
				<g>
					<path d="M242.4,543.1c2.4-0.3,4.7-0.6,7.1-0.9c1.4-0.2,1.4-2.4,0-2.2c-2.4,0.3-4.7,0.6-7.1,0.9
						C241,541.1,241,543.3,242.4,543.1L242.4,543.1z"/>
				</g>
			</g>
			<g>
				<g>
					<path d="M101,451.5c-3.3-3.9-6.6-7.9-10-11.8c-2.5-3-5.2-5.8-5.7-9.9c-0.3-2.2,0.6-4.6,0.5-6.8c-0.2-7.1-5.3-12.6-10.6-16.7
						c-13.5-10.4-32.1-18.1-49-12.6c-1.3,0.4-0.8,2.4,0.6,2.1c12.7-3,27-4.8,40-2.3c5.8,1.1,11,3.5,14.7,8.2c2.7,3.5,4.6,7.9,8,10.9
						c3.5,3.1,7.6,3,11.9,4.2c5.3,1.6,7.7,6.2,9.5,11.1c1.4,3.7,2.4,7.6,4.2,11.2c2.2,4.4,6.3,7.2,8.5,11.5c0.6,1.3,2.5,0.1,1.9-1.1
						c-2.5-4.8-7-8-9.2-13c-1.8-4.1-2.8-8.6-4.7-12.7c-1.6-3.4-3.8-6.5-7.2-8.2c-2.3-1.1-4.9-1.2-7.3-1.8c-4.1-1-6.8-3.1-9.2-6.5
						c-2.7-3.8-4.8-8-8.6-11c-4-3.1-9-4.5-14-5.2c-12.9-1.8-26.4-0.3-39,2.7c0.2,0.7,0.4,1.4,0.6,2.1c17.1-5.6,38,3,50.5,15.1
						c3.5,3.4,6.4,7.7,6.4,12.8c0,3.3-1,6.3,0.1,9.5c1.2,3.3,4.1,6.1,6.3,8.8c3.1,3.7,6.2,7.4,9.4,11.1
						C100.3,454.1,101.9,452.6,101,451.5L101,451.5z"/>
				</g>
			</g>
			<g>
				<g>
					<path d="M83.8,419.3c-0.1,5.7,2.8,10.8,8,13.1c7.2,3.2,16.2-0.1,22.2,6c1,1,2.5-0.5,1.5-1.5c-8.6-8.7-30-0.4-29.6-17.6
						C86,417.9,83.9,417.9,83.8,419.3L83.8,419.3z"/>
				</g>
			</g>
			<g>
				<g>
					<path d="M82.2,425.7c-7,6-16.7-0.1-24.6,2.5c-6.8,2.2-11,9.4-15.2,14.6c-4.4,5.6-10.5,11.4-13.4,18c-3.1,6.8-1.2,14.3,0.5,21.2
						c0.2,0.8,1.3,1.1,1.8,0.5c7.9-8.3,11.7-19.7,20-27.6c4.7-4.4,10.8-7.6,16.7-10.1c7.2-3,15.1,4.4,19.3,9.8
						c0.9,1.1,2.4-0.4,1.5-1.5c-3.3-4.3-9.8-10.5-15.3-11.6c-5.4-1-12.7,4-17,6.7c-12.8,7.9-16.8,22.3-26.8,32.7
						c0.6,0.2,1.2,0.3,1.8,0.5c-2.1-8.1-3.6-16.1,1.6-23.4c4.8-6.8,10.3-13.2,15.5-19.7c2.3-2.9,4.8-5.9,8.2-7.4
						c4.2-1.9,8.5-1.1,12.9-0.6c5.1,0.6,9.9,0.4,13.9-3.1C84.8,426.4,83.2,424.8,82.2,425.7L82.2,425.7z"/>
				</g>
			</g>
			<g>
				<g>
					<path d="M72.1,443.6c6.8-2,13.7-1.2,19.9,2.3c1.2,0.7,2.3-1.2,1.1-1.9c-6.7-3.8-14.2-4.7-21.6-2.6
						C70.1,441.9,70.7,444,72.1,443.6L72.1,443.6z"/>
				</g>
			</g>
			<g>
				<g>
					<path d="M94.1,413.3c-4.8-7.2,4.3-13.4,7.5-19.1c3-5.5,2.3-11.7,2.1-17.6c-0.4-7.9,0-15.7,1.1-23.5c1.1-7.4,2.9-15,8.7-20.2
						c-0.6-0.3-1.2-0.5-1.9-0.8c-0.2,7.8,1,15.4,3.7,22.7c3.1,8.5,5.9,15.3,3.3,24.4c-2.1,7.3-4.1,13.9-3.4,21.6
						c0.7,7.1,2.5,14.8,5.3,21.4c1.2,3,3.5,6.3,7.2,5.5c4.4-0.9,5.1-6.6,6.1-10.2c2-7.5,6.1-14.4,11.8-19.7c5.4-5,12-7.6,18.4-10.9
						c6.4-3.3,10.2-7.8,14.5-13.4c6.6-8.8,14.6-9.7,24.9-9.1c-0.3-0.6-0.5-1.2-0.8-1.9c-11.8,12.6-23.9,25.1-35.5,38
						c-3.8,4.3-6,8.7-7.5,14.2c-1.6,6.1-2.5,13.2-8.5,16.7c-1.2,0.7-0.1,2.6,1.1,1.9c10.3-6.1,8-21.3,15.3-30
						c11.4-13.7,24.4-26.2,36.6-39.2c0.7-0.7,0.2-1.8-0.8-1.9c-7.2-0.5-15.1-0.7-21.2,4c-5.8,4.5-8.5,11.8-14.6,16.1
						c-6.5,4.5-14.3,6.7-20.6,11.5c-5.8,4.5-10.4,10.4-13.2,17.2c-1.4,3.2-1.9,6.5-3,9.8c-0.3,1.1-0.7,2.1-1.3,3.1
						c-3.9,1.2-6.3,0.2-7-2.9c-0.8-2-1.4-4.3-2-6.4c-2.9-10.1-4.3-19.7-1.1-30c2.5-8.2,4-14.8,1.1-23c-3.5-10-6.7-18.7-6.5-29.5
						c0-1-1.2-1.4-1.9-0.8c-11.1,10-11,29.7-10.6,43.4c0.1,4,0.6,8,0.2,11.9c-0.7,6.1-4.2,9.4-7.6,14c-3,4.1-4.8,9.2-1.7,13.8
						C93,415.6,94.9,414.5,94.1,413.3L94.1,413.3z"/>
				</g>
			</g>
			<g>
				<g>
					<path d="M136.9,451.3c5.3-8.7,11.3-18.2,21.9-20.5c4.9-1.1,9.5-1.6,14.1-3.7c4.8-2.2,9.3-5.3,14.5-6.8
						c17.8-5.1,30.4,15,47.7,15.6c-0.1-0.7-0.2-1.4-0.3-2.1c-13.3,2.4-26.4,4.4-40,3.3c-8.6-0.7-18.7-0.7-23.2,8.1
						c-0.4,0.7,0.1,1.7,0.9,1.6c5-0.4,10.1-0.8,15.1-1.3c2.3-0.2,4.8-0.7,7-0.6c4.4,0.3,6.6,3,8.1,6.7c3.3,8.5,1.5,18.1-3.9,25.3
						c0.7,0.3,1.3,0.6,2,0.8c2.1-9.8-3.4-19.5-12.8-22.7c-1.3-0.5-1.9,1.7-0.6,2.1c8.3,2.8,13.2,11.5,11.3,20
						c-0.3,1.3,1.3,1.8,2,0.8c6.1-8.1,7.8-19.2,3.5-28.6c-2-4.4-4.6-6.7-9.5-6.7c-7.3,0.1-14.8,1.2-22.1,1.8
						c0.3,0.5,0.6,1.1,0.9,1.6c5.7-11,20.9-6.5,30.8-6.5c10.5-0.1,20.9-2,31.2-3.9c1.3-0.2,0.9-2.1-0.3-2.1
						c-18.8-0.6-31.1-22.4-51.1-14.5c-4.4,1.8-8.5,4.4-12.8,6.3c-5.6,2.5-11.9,2.2-17.4,4.6c-8.7,3.8-14,12.3-18.6,20.1
						C134.3,451.5,136.2,452.6,136.9,451.3L136.9,451.3z"/>
				</g>
			</g>
			<g>
				<g>
					<path d="M200,363.4c-7.6,1.8-14.5,5.5-20,11c-5.7,5.7-8.5,13.1-12.8,19.8c-2.7,4.1-5.9,7.3-10.6,9.1c-3.2,1.2-6.5,1.8-9.2,4
						c-6.5,5.4-8.3,21.7-19.2,19.7c-1.4-0.3-2,1.9-0.6,2.1c7.1,1.3,11.9-4.4,14.8-10.2c2.5-4.8,4.6-9.7,10-11.9
						c3.7-1.5,7.4-2.2,10.7-4.7c6.1-4.7,8.8-12.3,12.7-18.7c5.6-9.3,14.3-15.6,24.8-18C202,365.2,201.4,363.1,200,363.4L200,363.4z"
						/>
				</g>
			</g>
			<g>
				<g>
					<path d="M136,453c4.5-6.5,10.6-11.8,17.9-15c7.8-3.5,16-3.7,24.4-3.9c3.3-0.1,6.7-0.3,10-1c4-0.8,7.5-2.8,11.3-4
						c9.9-3,19.3,2.3,27.6,7.2c1.2,0.7,2.3-1.2,1.1-1.9c-7.4-4.4-15.8-9.2-24.8-8.3c-4.5,0.4-8.2,2.6-12.4,4
						c-5.3,1.7-10.9,1.8-16.3,1.9c-16.5,0.4-31,6-40.6,20C133.3,453.1,135.2,454.2,136,453L136,453z"/>
				</g>
			</g>
			<g>
				<g>
					<path d="M112.4,333c-3.7,10-7.7,21.2-4.7,31.9c0.7,2.5,1.9,4.7,2.8,7.1c1.6,3.9,1.4,7.4,0.7,11.5c-1,6-2.4,12-2.5,18.1
						c-0.2,8.7,2.3,18,9.4,23.7c3.6,2.9,8.4,3.3,12,6.1c4.7,3.8,6.7,9.8,7.4,15.6c0.2,1.4,2.4,1.4,2.2,0c-0.9-7.3-3.6-15-10.5-18.8
						c-4.4-2.5-8.9-3.1-12.4-7.2c-4.1-4.9-5.7-11.2-5.8-17.4c-0.2-10.6,5.8-22.2,1.7-32.4c-2.7-6.5-4.3-11.9-3.4-19.1
						c0.9-6.4,3.1-12.5,5.3-18.5C115,332.3,112.9,331.7,112.4,333L112.4,333z"/>
				</g>
			</g>
			<g>
				<g>
					<path d="M117.4,403.9c3.5-8.6,8.9-14.7,15-21.5c4.9-5.5,4.6-11.6,5.1-18.6c0.7-9.6,4.4-17.4,8.6-25.9c3.1-6.4,5.2-13,3.2-20
						c-0.7,0.3-1.3,0.6-2,0.8c3.4,6.8,6,13.3,5.7,21c-0.3,6.7-2.2,13.2-4.1,19.6c-1.6,5.6-3.2,11.2-3.9,17.1
						c-0.8,6.4,0.2,12.8,0.1,19.3c0,1.4,2.1,1.4,2.2,0c0.2-7.5-0.9-14.7,0.4-22.1c1.2-6.8,3.5-13.4,5.2-20.1
						c1.5-5.8,2.7-11.8,2.3-17.8c-0.4-6.6-3-12.3-5.9-18.1c-0.6-1.1-2.3-0.3-2,0.8c2.7,9.5-2.9,17.5-6.7,25.8
						c-2.9,6.2-4.6,12.8-5.1,19.6c-0.3,4.5,0.2,9.4-1.9,13.6c-1.8,3.5-5.3,6.1-7.9,9.1c-4.4,5-7.7,10.7-10.2,16.9
						C114.8,404.6,116.9,405.2,117.4,403.9L117.4,403.9z"/>
				</g>
			</g>
			<g>
				<g>
					<path d="M134.3,413.1c-3.2-8.3-0.5-16.5,2.8-24.3c2.8-6.5,5.4-13,7.1-19.9c3.5-14.1,5.3-29,6.6-43.5c0.1-1.4-2.1-1.4-2.2,0
						c-1.5,16-3.3,32.7-7.9,48.1c-3.9,12.9-14,26.3-8.5,40.2C132.7,415,134.8,414.4,134.3,413.1L134.3,413.1z"/>
				</g>
			</g>
			<g>
				<g>
					<g>
						<path d="M148.9,123.7c-9.9-0.7-19.8-1.1-29.7-1.2c-4.8,0-9.6,0-14.4,0.1c-2.9,0.1-8.4-1-10.9,1.1c-1.4,1.2-1.4,3.1-1.5,4.8
							c-0.4,5.2-0.5,10.5-0.7,15.7c-0.3,10.1-0.3,20.3-0.1,30.5c0.1,4.7-0.2,9.9,0.6,14.6c0.4,2.3,1,3.9,3.3,4.8
							c3,1.3,7.1,0.5,10.2,0.5c5.1-0.1,10.3-0.2,15.4-0.2c4.8-0.1,9.6-0.1,14.5-0.2c4.4-0.1,9.3,0.4,13.7-0.4
							c7-1.3,6.7-8.3,7.2-14.1c0.9-11,0.9-22.1,0-33.1c-0.4-5.2-0.8-10.6-1.8-15.8c-0.5-2.7-1.2-5.1-3.9-6.3
							c-1.3-0.6-2.4,1.3-1.1,1.9c4.6,2.1,3.9,12.3,4.3,16.3c0.4,4.5,0.7,9.1,0.9,13.6c0.3,9.6,0.3,19.6-1.1,29.2
							c-1,7.2-9.7,6.3-15.3,6.4c-4.5,0.1-9,0.1-13.5,0.2c-5.1,0.1-10.3,0.2-15.4,0.2c-4.8,0.1-12.9,2.1-15.2-3.9
							c-0.8-2.1-0.3-5.7-0.3-7.9c-0.1-2-0.1-3.9-0.2-5.9c-0.1-5.2-0.2-10.5-0.2-15.7c0-9.2,0.3-18.3,0.8-27.5
							c0.1-1.3,0.1-2.6,0.2-3.9c0.9-2.1,2.4-2.9,4.4-2.6c2.3-0.5,5.3-0.2,7.7-0.2c4.5-0.1,9-0.1,13.4,0c9.6,0.1,19.2,0.5,28.8,1.2
							C150.3,126,150.3,123.8,148.9,123.7L148.9,123.7z"/>
					</g>
				</g>
				<g>
					<g>
						<path d="M164.7,190.4c-1,7.7,8.9,5.4,13.7,5.3c10.3-0.2,20.7-0.4,31-0.6c5.3-0.1,13.6,1,14.8-6c0.7-4.2-0.1-9-0.2-13.3
							c-0.2-5.3-0.3-10.7-0.5-16c-0.3-9.5,0.5-19.2-0.8-28.6c-0.9-6.5-4.2-5.4-10.1-6.1c-10-1.2-19.8-1.3-29.9-0.9
							c-4.8,0.2-14.1-1.3-17.6,3.3c-4.4,5.8-0.3,17.5,0.2,23.9c1,12.9,1.5,25.9-0.5,38.7c-0.2,1.4,1.9,2,2.1,0.6
							c1.6-9.8,1.7-19.6,1.2-29.5c-0.4-8.7-2.4-17.6-2.4-26.3c0-3.4,0.4-6.4,3.9-7.7c1.6-0.6,3.7-0.4,5.4-0.5
							c4.5-0.1,8.9-0.4,13.3-0.5c9.3-0.3,19.6-0.6,28.7,1.5c2.1,0.5,2.7,0.9,3.5,3.2c0.8,2.5,0.6,6.1,0.7,8.7c0.2,4.9,0,9.8,0,14.7
							c0.1,9.7,0.5,19.3,0.8,29c0.1,3.1,0.9,7.4-3.3,9c-2.1,0.8-5.3,0.4-7.5,0.5c-5,0.1-10.1,0.2-15.1,0.3c-5,0.1-10,0.2-15,0.3
							c-3,0.1-15,1.9-14.3-3C167.1,189.1,164.9,189.1,164.7,190.4z"/>
					</g>
				</g>
				<g>
					<g>
						<path d="M156.5,268.6c-0.2,6.3-7,5.6-11.6,5.6c-4.3,0-8.6,0.1-12.9,0.1c-8.3,0.1-16.6,0.2-24.9,0.3c-0.9,0-2.1,0.2-3,0
							c-1.3-0.2-5.4-1.9-6.1-3.2c-0.8-1.4-0.3-4.5-0.4-6.1c-0.2-4.3-0.3-8.6-0.3-12.9c-0.1-8.3,0-16.5,0.3-24.8
							c0.1-4,0.3-7.9,0.6-11.9c0.1-1.5-0.3-4.6,0.4-5.9c1.2-2.3,5.7-2,7.8-2.2c8.3-0.9,16.5-1.1,24.8-1.1c4.4,0,8.8-0.7,13.3-0.6
							c2.5,0,5.4,0.1,7.7,1.3c3.4,1.8,3.2,5.6,3.1,9c-0.1,7.9,0.7,15.8,1,23.6C156.6,249.5,156.7,259,156.5,268.6
							c0,1.4,2.2,1.4,2.2,0c0.2-11.2,0-22.4-0.5-33.5c-0.2-4.8-0.6-9.7-0.8-14.5c-0.1-3.4,0.6-7.2-0.3-10.6c-1.3-4.7-6-5.9-10.4-6.2
							c-6.7-0.5-13.6,0.5-20.3,0.6c-5.1,0.1-10.2,0.2-15.3,0.7c-3.3,0.3-10-0.1-12.9,1.7c-2,1.2-1.8,2.9-2,5.1
							c-0.4,5.9-0.7,11.9-0.9,17.8c-0.4,10.9-0.4,21.8,0,32.8c0.2,6.1-1,14,7,14.5c12.4,0.7,25.2-0.3,37.6-0.4
							c7.7-0.1,18.4,2.4,18.8-7.9C158.8,267.2,156.6,267.2,156.5,268.6z"/>
					</g>
				</g>
				<g>
					<g>
						<path d="M223.4,203.4c-9.8-0.6-19.5-1-29.3-0.9c-4.6,0-9.1,0.1-13.7,0.3c-3,0.1-7.2-0.4-10,1.1c-5,2.8-5,11.8-5.3,16.7
							c-0.5,9.3,0.5,18.8,1.1,28.1c0.3,4.6,0.6,9.3,0.9,13.9c0.2,3.8-0.5,9.5,0.9,13.1c0.5,1.2,1,1.6,2.3,2c1.9,0.6,4.9,0,6.8,0
							c2.6-0.1,5.1-0.1,7.7-0.2c9.6-0.4,19.2-1,28.8-2c2.3-0.2,5.9,0,7.8-1.8c1.8-1.7,1.9-4.9,2.3-7.1c3-20.7-3.3-41.6,1.7-62.1
							c0.3-1.4-1.8-1.9-2.1-0.6c-4.3,17.8-0.4,35.8-1,53.8c-0.1,2.4-0.2,4.7-0.5,7.1c-0.6,4.5-1.1,7.7-6.3,8.3
							c-5.1,0.6-10.2,1-15.3,1.4c-4.5,0.3-9,0.6-13.4,0.8c-2.6,0.1-5.1,0.2-7.7,0.3c-1.6,0-6.4,1-7.7,0.1
							c-2.9-1.8-1.9-11.6-2.1-14.9c-0.3-4.6-0.6-9.3-0.9-13.9c-0.6-9.8-1.8-19.9-0.7-29.7c0.3-2.4,0.5-5.7,1.6-8
							c2-4.2,3.8-3.8,7.3-4c5.2-0.3,10.4-0.4,15.7-0.4c10.4-0.1,20.9,0.3,31.3,0.9C224.8,205.7,224.8,203.5,223.4,203.4L223.4,203.4
							z"/>
					</g>
				</g>
			</g>
			<g>
				<g>
					<path d="M75.6,282.4c0.1,3.2,0.3,6.8,2.8,9.2c2.9,2.6,7.7,2.3,11.3,2.5c12.8,0.9,25.6,1.7,38.5,2.2c25,1,50.2,0.8,75-2.8
						c8.8-1.3,21.1-1.8,27-9.5c5.8-7.5,5.2-20,6-29c2.1-26.1,2.4-52.3,2-78.5c-0.2-13.1-0.6-26.2-1.1-39.3
						c-0.2-5.9-0.3-11.8-0.7-17.7c-0.2-3.6-0.5-7.9-3.1-10.7c-2.2-2.4-5.3-2.7-8.4-2.5c-6.7,0.4-13.3,1.5-20,2.1
						c-12.7,1.1-25.5,1.9-38.3,2.2c-13.1,0.3-26.2,0.3-39.3-0.2c-6.5-0.2-13.1-0.6-19.6-1c-5-0.3-10-0.9-15-0.3
						c-12.5,1.7-18.1,11-19.3,22.8c-0.8,7.9-0.1,15.8,0.3,23.7c0.6,12.5,0.5,25,0.7,37.4C74.7,222.9,75.2,252.6,75.6,282.4
						c0,1.4,2.2,1.4,2.2,0c-0.3-23.1-0.7-46.3-1-69.4c-0.3-20.2-0.1-40.4-1.2-60.6c-0.6-11-2.7-26.3,5.3-35.3
						c4.8-5.4,12.5-6.3,19.4-5.9c11,0.5,21.9,1.5,32.9,1.8c22.9,0.6,45.9,0,68.7-1.9c5.6-0.5,11.1-1,16.6-1.6
						c2.5-0.3,5.2-0.8,7.8-0.8c4.6,0,6.7,3.2,7.4,7.3c1.8,10.7,1.1,22.5,1.5,33.3c0.8,22.9,1.2,45.8,0.7,68.8
						c-0.3,11.4-0.8,22.9-1.7,34.3c-0.4,5.5-0.9,11.1-1.5,16.6c-0.7,6.1-1.7,13-7.2,16.8c-4.9,3.3-11.4,4-17.1,4.9
						c-6.8,1.1-13.7,2-20.6,2.6c-12.1,1.1-24.3,1.5-36.4,1.5c-12.8,0-25.7-0.6-38.5-1.3c-6.4-0.4-12.8-0.8-19.2-1.2
						c-3-0.2-6-0.3-9-0.7c-5.2-0.7-6.7-4.5-6.8-9.1C77.8,281,75.6,281,75.6,282.4z"/>
				</g>
			</g>
			<g>
				<g>
					<path d="M102.6,276.8c38.5,25.4,76,52.3,116.2,75c1.2,0.7,2.3-1.2,1.1-1.9c-40.2-22.7-77.7-49.6-116.2-75
						C102.5,274.1,101.4,276,102.6,276.8L102.6,276.8z"/>
				</g>
			</g>
			<g>
				<g>
					<path d="M210,127.9c22.4-7.4,44.5-15.4,66.4-24.2c1.3-0.5,0.7-2.6-0.6-2.1c-21.9,8.7-44,16.8-66.4,24.2
						C208,126.3,208.6,128.4,210,127.9L210,127.9z"/>
				</g>
			</g>
			<g>
				<g>
					<path d="M193.9,114.6c32.6-26.5,65.6-52.5,99-78c1.1-0.8,0-2.7-1.1-1.9C258.2,60.3,225,86.4,192.3,113
						C191.2,113.9,192.8,115.5,193.9,114.6L193.9,114.6z"/>
				</g>
			</g>
			<g>
				<g>
					<path d="M98.9,300c4.9,7.9,10.2,15.6,15.9,23.1c0.8,1.1,2.7,0,1.9-1.1c-5.7-7.4-11-15.1-15.9-23.1
						C100,297.7,98.1,298.8,98.9,300L98.9,300z"/>
				</g>
			</g>
			<g>
				<g>
					<path d="M263.1,370.4c4.4,2,8.5,4.6,12.2,7.7c1.1,0.9,2.6-0.6,1.5-1.5c-3.8-3.3-8.1-6-12.7-8.1
						C262.9,367.9,261.8,369.8,263.1,370.4L263.1,370.4z"/>
				</g>
			</g>
			<g>
				<g>
					<path d="M438.4,533.1c23.8-4.3,46.9-2.5,70.4,2.7c22.3,5,44.8,4.5,67.6,3.4c1.4-0.1,1.4-2.3,0-2.2c-12,0.6-23.9,1.1-35.9,0.7
						c-12.4-0.5-24.4-2.5-36.5-5.3c-21.8-4.9-44-5.4-66.1-1.5C436.4,531.3,437,533.4,438.4,533.1L438.4,533.1z"/>
				</g>
			</g>
			<g>
				<g>
					<path d="M385.8,531.6c-7.9-0.8-15.8-0.2-23.4,2.1c-8.3,2.5-15.7,7.8-24.5,8.4c-1.4,0.1-1.4,2.3,0,2.2
						c7.9-0.5,14.4-4.6,21.6-7.3c8.4-3.1,17.3-4,26.2-3.1C387.2,533.9,387.2,531.7,385.8,531.6L385.8,531.6z"/>
				</g>
			</g>
			<g>
				<g>
					<path d="M247.1,542.7c10.5-4.1,21.6-2,32.3,0.3c1.4,0.3,2-1.8,0.6-2.1c-11.1-2.4-22.5-4.5-33.4-0.3
						C245.2,541.1,245.8,543.3,247.1,542.7L247.1,542.7z"/>
				</g>
			</g>
			<g>
				<g>
					<path d="M174.3,148.7c12.9,14.6,26.5,28.4,40.8,41.6c1,1,2.6-0.6,1.5-1.5c-14.3-13.2-27.9-27.1-40.8-41.6
						C174.9,146.1,173.4,147.7,174.3,148.7L174.3,148.7z"/>
				</g>
			</g>
			<g>
				<g>
					<path d="M193,148.6c5.6,4.5,11.2,8.9,16.8,13.4c1.1,0.9,2.6-0.7,1.5-1.5c-5.6-4.5-11.2-8.9-16.8-13.4
						C193.5,146.2,191.9,147.7,193,148.6L193,148.6z"/>
				</g>
			</g>
			<g>
				<g>
					<path d="M107.7,225.7c9.3,10.9,19.3,21.2,29.9,30.9c1,0.9,2.6-0.6,1.5-1.5c-10.6-9.7-20.6-20-29.9-30.9
						C108.3,223.1,106.8,224.7,107.7,225.7L107.7,225.7z"/>
				</g>
			</g>
			<g>
				<g>
					<path d="M126.5,223.4c3.1,2.8,6.2,5.6,9.3,8.4c1,0.9,2.6-0.6,1.5-1.5c-3.1-2.8-6.2-5.6-9.3-8.4
						C127,220.9,125.4,222.5,126.5,223.4L126.5,223.4z"/>
				</g>
			</g>
		</g>
		<g>
			<g>
				<path d="M449,577.6c8.5-1,17-2,25.5-2.9c1.1-0.1,1.1-1.9,0-1.8c-8.5,1-17,2-25.5,2.9C447.9,575.9,447.9,577.7,449,577.6
					L449,577.6z"/>
			</g>
		</g>
		<g>
			<g>
				<path d="M436.7,568.5c7.6-1,15.2-2,22.8-3c1.1-0.1,1.1-1.9,0-1.8c-7.6,1-15.2,2-22.8,3C435.6,566.9,435.6,568.7,436.7,568.5
					L436.7,568.5z"/>
			</g>
		</g>
		<g>
			<g>
				<path d="M429.7,559.8c5.6-0.4,11.1-0.7,16.7-1.1c1.1-0.1,1.1-1.9,0-1.8c-5.6,0.4-11.1,0.7-16.7,1.1
					C428.5,558.1,428.5,559.8,429.7,559.8L429.7,559.8z"/>
			</g>
		</g>
		<g>
			<g>
				<path d="M512.3,570c12.6,1,25.2,2,37.8,3c1.1,0.1,1.1-1.7,0-1.8c-12.6-1-25.2-2-37.8-3C511.2,568.1,511.2,569.9,512.3,570
					L512.3,570z"/>
			</g>
		</g>
		<g>
			<g>
				<path d="M88.5,579.9c12.6,0,25.2,0,37.8,0c1.1,0,1.1-1.8,0-1.8c-12.6,0-25.2,0-37.8,0C87.4,578.2,87.4,579.9,88.5,579.9
					L88.5,579.9z"/>
			</g>
		</g>
		<g>
			<g>
				<path d="M158,565c7.9-0.2,15.8,0.1,23.7,0.9c1.1,0.1,1.1-1.7,0-1.8c-7.9-0.8-15.8-1.1-23.7-0.9C156.8,563.2,156.8,565,158,565
					L158,565z"/>
			</g>
		</g>
	</g>
</g>
</svg>
