<?xml version="1.0" encoding="utf-8"?>
<!-- Generator: Adobe Illustrator 18.1.1, SVG Export Plug-In . SVG Version: 6.00 Build 0)  -->
<svg version="1.1" xmlns="http://www.w3.org/2000/svg" xmlns:xlink="http://www.w3.org/1999/xlink" x="0px" y="0px"
	 viewBox="0 0 474.8 129.1" enable-background="new 0 0 474.8 129.1" xml:space="preserve">
<g id="Layer_2" display="none">
</g>
<g id="Layer_1">
	<g>
		<g>
			<path d="M202.3,41.8c0.7-0.6,1.2-0.8,1.7-0.8c0.4,0,1,0.2,1.8,0.6c1,0.5,1.4,1,1.4,1.5c0,0.7-1,2.9-3,6.5c-0.5,0.9-1,1.8-1.6,2.8
				c-0.5,0.9-0.9,1.7-1.3,2.2c-0.3,0.5-0.6,1.1-0.9,1.6c-0.3,0.5-0.5,0.9-0.7,1.2c-0.2,0.3-0.3,0.5-0.4,0.8
				c-0.1,0.3-0.2,0.5-0.2,0.6c-0.1,0.2-0.1,0.3-0.1,0.4c0,0.6,0.4,1.6,1.3,2.9c1,1.6,1.5,2.5,1.5,2.7c0,0.2,0.3,0.7,0.8,1.4
				c0.5,0.6,1.1,1.7,1.7,3.4c0.4,1.1,1,2.3,1.7,3.4c2.3,3.4,3.5,5.8,3.5,7.3c0,1.4-1,2.1-3.1,2.1h-0.2c-1.3,0-2.1-0.3-2.6-0.6
				c-0.5-0.4-1-1.3-1.5-2.8c-0.4-1.1-1-2.2-1.7-3.4c-0.7-1.2-1.2-2.2-1.5-3.2c-0.5-1.2-1.1-2.6-2.1-4.1c-0.9-1.5-1.5-2.3-1.7-2.3
				c-0.2,0-0.3,0.5-0.3,1.6c0,1.8,0.2,4.8,0.7,9c0.2,1.3,0.2,2.3,0.2,3c0,0.9-0.2,1.5-0.5,1.7c-0.3,0.3-1.1,0.5-2.2,0.6
				c-0.7,0.1-1.1,0.2-1.2,0.2c-0.5,0-1-0.3-1.6-0.9c-0.6-0.7-0.9-1.6-0.9-2.8c0-0.2,0-0.5,0-1c0-0.5,0-0.9,0-1.3
				c0.1-2,0.2-4.5,0.2-7.5c0-4.3-0.1-8.7-0.2-13.1l-0.2-12.5l0.9-0.5c0.3-0.2,0.6-0.2,0.8-0.2c0.4,0,1,0.2,1.8,0.7l1.6,0.8l0.2,5
				c0.1,3.3,0.3,4.9,0.5,4.9c0.3,0,1.1-1.2,2.5-3.5c1.4-2.4,2.4-4.1,2.8-5.4C200.9,43.5,201.5,42.6,202.3,41.8z"/>
			<path d="M220.1,39.4c0.9-0.3,2.1-0.5,3.5-0.5c1.5,0,2.6,0.2,3.3,0.5c1.3,0.6,2.3,1.6,3,3c0.3,0.7,0.6,2,0.9,3.9
				c0.3,1.9,0.4,3.7,0.4,5.2c0,0.7,0,1.2-0.1,1.5c-0.2,1.3-0.5,2.7-1,4.3c-0.5,1.6-0.9,2.4-1.2,2.4c-0.4,0-0.6,0.3-0.6,1
				c0,0.5,0.2,1.1,0.5,1.7c0.8,1.2,1.9,3.3,3.4,6.5c1.5,3.1,2.3,5.1,2.4,5.9c0,0.3,0.1,0.6,0.1,1.1c0,0.7-0.2,1.2-0.5,1.7
				c-0.4,0.6-0.9,0.9-1.4,0.9c-0.5,0-1,0-1.4-0.1c-1.3-0.2-2.1-0.3-2.4-0.5c-0.3-0.2-0.5-0.6-0.5-1.2c0-1-0.5-2.6-1.6-4.6
				c-1-2.1-1.8-3.1-2.3-3.1h-0.1c-0.2,0.1-0.2,0.7-0.2,1.7c0,1.5,0.2,3.2,0.5,5c0.1,0.8,0.2,1.4,0.2,1.7c0,1.7-0.4,2.8-1.1,3.2
				c-0.3,0.2-0.7,0.2-1.3,0.2c-1.6,0-2.6-0.4-3-1.1c-0.3-0.4-0.5-3.8-0.6-10.3c-0.1-2.1-0.1-4.3-0.2-6.7c-0.1-2.4-0.1-4.1-0.1-5.2
				c0-1.1-0.1-2.5-0.2-4.3c-0.1-1.7-0.3-3.7-0.5-5.8c-0.2-2.4-0.3-3.8-0.3-4.3c0-1.2,0.2-2.1,0.5-2.5
				C218.6,40.1,219.2,39.7,220.1,39.4z M224.9,45.1c-0.2-0.4-0.4-0.6-0.8-0.6c-0.3,0-0.6,0.2-0.8,0.5c-0.2,0.4-0.2,0.7,0,0.9
				c0,0.1,0.2,1.7,0.4,4.9c0.2,3.2,0.4,4.9,0.5,5c0.1,0.1,0.4-0.1,0.8-0.6c0.3-0.5,0.5-1.3,0.5-2.6c0-1,0-1.8-0.1-2.5
				C225.3,47.3,225.1,45.6,224.9,45.1z"/>
			<path d="M243.4,48.7c0.6-0.7,1.4-1,2.4-1c0.9,0,1.7,0.3,2.3,1l0,0c0.6,0.6,1,1.5,1,2.4l0.4,6.2c0.3,9.5,0.4,14.9,0.4,16.3
				c0,0.8,0,1.4,0,1.9c0,0.5-0.1,0.9-0.1,1.2c0,0.3-0.1,0.5-0.2,0.7c-0.1,0.2-0.2,0.3-0.2,0.3c0,0.1-0.1,0.1-0.3,0.2
				c-0.2,0.1-0.4,0.2-0.4,0.2c-0.6,0.4-1,0.5-1.4,0.5c-0.2,0-0.7-0.1-1.5-0.4c-1.2-0.5-1.9-0.9-2.1-1.3c-0.2-0.3-0.4-6.4-0.5-18.3
				c-0.1-11.9-0.2-8.4-0.4-8.6C242.6,49.8,242.8,49.3,243.4,48.7z"/>
			<path d="M263.5,40.8c0.6-0.3,1.3-0.5,2.1-0.5c0.6,0,1,0,1.4,0.1c1.5,0.2,2.5,0.4,3,0.6c0.5,0.3,1,0.8,1.5,1.5
				c0.5,0.8,0.8,1.6,0.8,2.4c0,0.9-0.4,1.7-1.1,2.4c-0.6,0.6-1.2,0.9-1.8,0.9c-0.7,0-1.3-0.4-1.9-1.3c-0.5-0.7-0.9-1-1.4-1
				c-0.5,0-0.9,0.3-1.3,0.9c-0.4,0.6-0.7,1.3-0.8,2.1v0.4c0,2.8,2.1,7.9,6.4,15.4c0.7,1.2,1.4,3.4,2.1,6.7c0,0.2,0.1,0.6,0.1,1.1
				c0,2.8-0.6,4.9-1.7,6.5c-0.5,0.7-1.3,1.2-2.5,1.7c-1.1,0.5-2.2,0.8-3.1,0.8c-0.1,0-0.2,0-0.3,0c-0.1,0-0.2,0-0.3,0
				c-1.2-0.2-2.6-1.1-4.2-2.6c-1.6-1.5-2.5-2.8-2.5-3.7c0-0.4,0.3-0.9,0.8-1.4c0.6-0.5,1.1-0.8,1.6-0.9c0.1,0,0.3-0.1,0.5-0.1
				c0.6,0,1.4,0.8,2.7,2.4c0.5,0.7,1,1,1.5,1c0.5,0,0.9-0.3,1.1-0.9c0.1-0.2,0.2-0.6,0.2-1.1c0-2.9-1.3-7.2-3.9-12.8
				c-2.4-5.3-3.6-9.2-3.6-11.7c0-1.1,0.2-2.2,0.6-3.1c0.8-2,1.4-3.3,1.9-3.9C261.6,42,262.4,41.4,263.5,40.8z"/>
			<path d="M281.7,39.3c0.7-0.6,1.9-0.9,3.5-0.9h1.7c2.7,0.1,4.4,0.2,4.9,0.4c0.3,0.1,1,0.2,2.1,0.3c1.1,0.1,1.9,0.3,2.5,0.7
				s0.8,1,0.8,1.9c-0.1,1-0.3,1.6-0.6,2.1c-0.4,0.4-1,0.7-1.9,0.8c-1.1,0.2-1.7,0.4-1.8,0.5c-0.3,0.3-0.4,5.1-0.4,14.5
				c0,6.5,0.1,11.1,0.2,13.8c0.1,2.1,0.2,3.3,0.2,3.4c0,1.1-0.2,2-0.7,2.7c-0.6,1-1.4,1.5-2.6,1.5c-0.8,0-1.5-0.2-2.4-0.7l-1.4-0.8
				l0.2-17.3c0.1-4.5,0.2-8.9,0.2-13.4c0-2.7-0.2-4.2-0.6-4.4c-0.6-0.3-1-0.4-1.1-0.4c-0.2,0.1-0.5,0.1-0.8,0.1
				c-0.9,0-1.7-0.3-2.3-0.8c-0.6-0.5-0.9-1.2-0.9-1.9C280.4,40.7,280.8,40,281.7,39.3z"/>
			<path d="M311.2,46.3c1.3-1.3,3.3-2,5.9-2c1.2,0,2.1,0.2,2.9,0.6c1.1,0.5,1.8,1.9,2.3,4.3c0.4,1.9,0.8,5.2,1.3,9.8
				c0.5,4.6,0.8,8.2,0.9,10.7c0,2.3,0.2,5,0.5,7.9c0.3,3,0.5,4.6,0.6,4.8c0,0.1,0.1,0.2,0.1,0.3c0,0.5-0.2,1-0.6,1.7
				c-0.4,0.7-0.8,1-1.1,1.1c-0.1,0.1-0.3,0.1-0.7,0.1c-0.8,0-1.6-0.2-2.5-0.5c-0.9-0.4-1.5-0.7-1.7-1.1c-0.2-0.4-0.4-1.8-0.7-4.2
				c-0.3-2.4-0.4-4.3-0.4-5.8c0-1.4-0.2-2.2-0.5-2.4c-0.3-0.2-1.4-0.2-3.4-0.2c-1.7,0-2.6,0.1-2.7,0.2c-0.1,0.3-0.1,0.6-0.1,0.9
				c0,1.1,0.1,2.4,0.2,4.1c0.2,2,0.2,3.6,0.2,4.9v0.7c-0.1,0.4-0.4,0.7-1.1,0.9c-0.7,0.3-1.3,0.4-1.9,0.4c-0.3,0-0.5,0-0.7-0.1
				c-1.7-0.5-2.7-1.2-2.9-2.1c0,0,0-0.2,0-0.3c0-0.2,0-0.3,0-0.5c0-2.1,0.3-6.7,0.8-13.7c0.5-7,0.9-11,1.1-12.1
				c0.3-1.4,0.9-2.9,1.8-4.7C309.7,48.2,310.5,46.9,311.2,46.3z M316.4,54.1c-0.3-1.5-0.7-2.2-1.1-2.2c-0.4,0-0.8,0.5-1.2,1.6
				c-1,2-1.6,4.8-1.8,8.4c-0.1,1.5-0.2,2.4-0.2,2.5c0,0.7,0.1,1.1,0.4,1.3c0.3,0.2,0.9,0.3,2.1,0.3c1.5,0,2.4-0.2,2.5-0.5
				c0.1-0.2,0.2-0.8,0.2-2C317.2,60,316.9,56.9,316.4,54.1z"/>
			<path d="M334.1,41.3c0.5-0.5,1-0.7,1.5-0.7c0.5,0,0.8,0,1.1,0.1c1.2,0.2,1.9,0.5,2.2,0.8c0.6,0.8,0.9,5.3,0.9,13.7v4.6v4
				c0,6.7,0.1,10.3,0.2,10.8c0.2,0.9,1,1.3,2.5,1.3c0.7,0,1.3,0,1.8-0.1c0.4,0,0.9-0.1,1.5-0.1c1,0,1.6,0.2,2,0.5
				c0.4,0.3,0.6,0.8,0.6,1.6c0,0.6-0.1,1-0.3,1.3c-0.2,0.3-0.7,0.7-1.5,1.2c-1.4,0.8-2.8,1.2-4.4,1.2c-2.1,0.1-3.2,0.2-3.3,0.2
				c-0.1,0.1-0.3,0.1-0.5,0.1c-0.6,0-1.3-0.2-2.1-0.5c-0.8-0.4-1.3-0.8-1.7-1.2c-0.8-0.9-1.1-3.5-1.1-7.8c0-1.1,0.1-3,0.2-5.9
				c0.1-2.6,0.2-5.5,0.2-8.6c0-7.4-0.1-12-0.4-13.7c-0.1-0.7-0.2-1.1-0.2-1.3C333.4,42.3,333.6,41.9,334.1,41.3z"/>
			<path d="M360.3,40.3c0.8-0.3,1.4-0.5,2.1-0.5c0.8,0,1.4,0.3,2.1,0.9c0.6,0.7,0.9,1.9,1,3.8c0.2,3.5,0.9,6.7,2,9.6
				c0.4,0.9,0.5,1.6,0.5,2.1c0,0.2,0,0.4,0.1,0.5c0.1,0.1,0.2,0.1,0.3,0.1c0.3-0.2,0.5-1,0.5-2.3c0-1.4,0.1-2.2,0.2-2.4
				c0.1-0.1,0.2-1.7,0.3-4.7c0.1-3.1,0.2-5,0.2-5.7c0-0.4,0.6-0.8,1.7-1.2c1.1-0.5,1.9-0.7,2.7-0.7c1.1,0,1.9,0.4,2.4,1.1
				c0.5,0.6,0.7,1.2,0.7,1.9c0,0.6-0.2,3.2-0.7,7.9c-0.1,0.9-0.3,3.6-0.6,8.2c-0.2,3.4-0.9,7.4-2.2,12.2c-0.6,2.4-1.2,4.3-1.9,5.6
				c-0.6,1.3-1.5,2.6-2.7,3.9c-0.6,0.7-1.1,1.1-1.5,1.1c-0.3,0-0.6,0.3-0.9,0.8c-0.3,0.5-0.9,0.9-1.8,1.3c-1,0.4-2,0.6-3,0.6
				c-0.8,0-1.8-0.3-2.9-0.9c-1.1-0.6-1.7-1.1-1.7-1.5c0-0.6,0.3-1.2,0.9-1.9c0.6-0.7,1.3-1.2,2.2-1.6c1.5-0.7,2.7-1.7,3.6-3
				c0.9-1.3,1.7-3.1,2.5-5.5c0.9-2.6,1.3-4.3,1.3-5c0-0.6-0.4-1-1.2-1.3c-2.2-1-3.7-2.1-4.3-3.3c-0.4-0.7-1.1-4-2.4-9.8
				c-0.7-2.8-1-5.1-1-6.7C358.5,42.1,359.1,40.8,360.3,40.3z"/>
			<path d="M385.9,43.5c0.3,0,1.5-0.1,3.8-0.1c2.6,0.1,4.6,0.6,6,1.7c1.3,1.1,2.4,3.1,3.2,5.9c0.8,2.7,1.2,5.9,1.2,9.4
				c0,0.8-0.1,1.6-0.2,2.5c-0.2,0.8-0.3,1.9-0.5,3.4c-0.2,1.5-0.4,2.9-0.6,4.1c-0.2,1.2-0.5,2-0.8,2.5c-0.3,0.4-0.4,0.9-0.4,1.4
				c0,0.4-0.3,1.1-0.8,2.2c-0.5,1.1-0.9,1.9-1.3,2.3c-0.6,0.7-1.5,1.4-2.7,1.9c-1.2,0.6-2.3,0.9-3.4,1c-0.9,0.1-1.4,0.2-1.6,0.2
				c-0.6,0-1.2-0.3-1.7-0.8l-1.1-1.1l0.1-12.8v-3.8c0-6.3-0.1-9.8-0.2-10.4c-0.3-2.1-0.5-3.8-0.5-5.3
				C384.5,45.1,384.9,43.8,385.9,43.5z M393,52.8c-0.8-2.7-1.4-4-1.9-4l-0.2,0.2l-0.1,0.2c0,0.1,0,0.3,0,0.5s0,0.4,0,0.6
				c0,0.7,0,2.1,0.2,4.3c0.2,2.6,0.3,6.1,0.4,10.6c0,4.2,0.2,6.3,0.5,6.3c0.1,0,0.3-0.4,0.5-1.1c1-3.2,1.4-6.6,1.4-10.3
				C393.9,57.3,393.6,54.8,393,52.8z"/>
			<path d="M408.6,44.1c0.6-0.7,1.4-1,2.4-1c0.9,0,1.7,0.3,2.3,1l1,1l0.5,12.2c0.3,9.5,0.4,14.9,0.4,16.3c0,0.8,0,1.4,0,1.9
				c0,0.5-0.1,0.9-0.1,1.2c0,0.3-0.1,0.5-0.2,0.7c-0.1,0.2-0.2,0.3-0.2,0.3c0,0.1-0.1,0.1-0.3,0.2c-0.2,0.1-0.4,0.2-0.4,0.2
				c-0.6,0.4-1,0.5-1.4,0.5c-0.2,0-0.7-0.1-1.5-0.4c-1.2-0.5-1.9-0.9-2.1-1.3c-0.2-0.3-0.4-6.4-0.5-18.3
				c-0.1-11.9-0.2-13.1-0.4-13.2C407.8,45.2,408,44.7,408.6,44.1z"/>
			<path d="M428.7,46.3c1.3-1.3,3.3-2,5.9-2c1.2,0,2.1,0.2,2.9,0.6c1.1,0.5,1.8,1.9,2.3,4.3c0.4,1.9,0.8,5.2,1.3,9.8
				c0.5,4.6,0.8,8.2,0.9,10.7c0,2.3,0.2,5,0.5,7.9c0.3,3,0.5,4.6,0.6,4.8c0,0.1,0.1,0.2,0.1,0.3c0,0.5-0.2,1-0.6,1.7
				c-0.4,0.7-0.8,1-1.1,1.1c-0.1,0.1-0.3,0.1-0.7,0.1c-0.8,0-1.6-0.2-2.5-0.5c-0.9-0.4-1.5-0.7-1.7-1.1c-0.2-0.4-0.4-1.8-0.7-4.2
				c-0.3-2.4-0.4-4.3-0.4-5.8c0-1.4-0.2-2.2-0.5-2.4c-0.3-0.2-1.4-0.2-3.4-0.2c-1.7,0-2.6,0.1-2.7,0.2c-0.1,0.3-0.1,0.6-0.1,0.9
				c0,1.1,0.1,2.4,0.2,4.1c0.2,2,0.2,3.6,0.2,4.9v0.7c-0.1,0.4-0.4,0.7-1.1,0.9c-0.7,0.3-1.3,0.4-1.9,0.4c-0.3,0-0.5,0-0.7-0.1
				c-1.7-0.5-2.7-1.2-2.9-2.1c0,0,0-0.2,0-0.3c0-0.2,0-0.3,0-0.5c0-2.1,0.3-6.7,0.8-13.7c0.5-7,0.9-11,1.1-12.1
				c0.3-1.4,0.9-2.9,1.8-4.7C427.2,48.2,428,46.9,428.7,46.3z M433.9,54.1c-0.3-1.5-0.7-2.2-1.1-2.2c-0.4,0-0.8,0.5-1.2,1.6
				c-1,2-1.6,4.8-1.8,8.4c-0.1,1.5-0.2,2.4-0.2,2.5c0,0.7,0.1,1.1,0.4,1.3c0.3,0.2,0.9,0.3,2.1,0.3c1.5,0,2.4-0.2,2.5-0.5
				c0.1-0.2,0.2-0.8,0.2-2C434.7,60,434.4,56.9,433.9,54.1z"/>
		</g>
		<g>
			<path fill="#59C9E7" d="M34.3,67.1c-1.9,3.8-4.8,7.1-6.5,11C26,82,25.6,87,28.5,90.3c2.3,2.6,6.1,3.4,9.6,3.8
				c28.3,3.3,57-3,85.4-0.7c11.1,0.9,1.2,3.1,12.3,3.6s20.6-2.8,30.3-8.4c5.8-3.4,11.1-8.9,11.4-15.6c0.1-3.8-1.3-7.4-2.7-10.8
				c-1.7-4.2-3.4-8.4-5.1-12.6c-1.8-4.4-3.7-8.9-6.9-12.5c-4.2-4.6-10.3-7.2-16.4-8.2c-6.2-1-10.3,1.4-16.6,1.7
				c-26.8,1-32.8,0.2-59.5,3.2c-10.4,1.2-21.9,3.6-27.8,12.3C38.1,52.2,37.7,60.3,34.3,67.1z"/>
			<g>
				<g>
					<path d="M151.3,26.7c-18.7-1.4-36.6,0.4-55.2,1.8c-12.6,1-25.3,1.3-37.9,2.1c-5.9,0.4-11.8,0.9-17.6,1.5
						c-4.9,0.5-11.1,0.4-15.6,2.6c-3.5,1.7-5.1,5.1-6.6,8.5c-2.4,5.2-4.3,10.6-5.7,16.2c-2.1,8.7-3.7,19.2,1.2,27.4
						c5.2,8.6,15.3,8.9,24.3,9.7c12,1,24.1,1.1,36.1,0.2c12.4-0.9,24.6-3.3,37-3.2c8.9,0,17.9,1.4,26.8,1.2
						c6.8-0.2,13.6,1.2,20.4-0.1c8.4-1.6,13.4-7.5,14.7-15.9c1.7-10.5-0.2-22.1-3.2-32.2c-2.3-7.7-5.1-17.6-13.6-20.2
						c-9-2.8-20.4-0.6-29.6,0.4c-8,0.9-15.9,2.2-23.9,2.7C92.2,30.1,81.6,28.9,71,29c-5.2,0.1-10.1,1.1-15.1,2.5
						c-5.4,1.5-10.9,2.4-16.2,4c-20,5.8-21,29.6-22.1,46.9c-0.5,8.4,2.1,15,10.6,17.7c10.5,3.3,22.7,3.6,33.6,4.5
						c24.7,2,49.7,1.6,74.4-0.3c5.4-0.4,9.2-3.4,14.5-4c7-0.7,16.1-0.6,19.3-8.3c1.8-4.4,1.2-9.8,1.2-14.4c0-6.5,0.2-13,0.1-19.5
						c-0.2-8.8-1.5-18.2-7.7-24.8c-5.9-6.3-15.6-9.8-24.2-8.9c-5.7,0.6-11.2,1.7-16.9,2c-5.3,0.3-10.7,0.6-16,1
						c-19.5,1.3-39.1,2.1-58.6,3.8c-8.7,0.8-17.8,2.9-24.1,9.4c-7.1,7.5-6.6,19-7.6,28.6c-0.6,5.6-1.5,11.2-1.7,16.8
						c-0.1,3.7,0.5,7.3,3.1,10.1c5.7,6.2,16.2,6.2,24,7.1c23,2.4,47.9,4.6,70.7-0.9c7.4-1.8,14.3-4.7,21.5-7
						c4.1-1.3,8.3-2.3,12.6-2.9c5.2-0.8,11-0.1,16.1-1.4c7.7-2,10.1-12.8,10.7-19.6c0.1-1.7-2.5-1.7-2.7,0
						c-0.4,4.8-1.7,11.6-5.4,15.1c-3.7,3.6-12,2.4-16.8,3c-6.7,0.8-13.2,2.5-19.6,4.8c-6.1,2.1-12.2,4.4-18.5,5.9
						c-9.6,2.2-19.7,2.6-29.5,2.7c-10.8,0.1-21.6-0.5-32.3-1.5C40,100.3,27,101,20.3,95c-3.9-3.4-3.3-8.5-2.8-13.1
						c0.6-5.6,1.2-11.1,1.8-16.7c1.1-10.6,1.4-21.1,11.7-26.9c9.2-5.2,20.4-4.8,30.6-5.3c8.3-0.4,16.5-1,24.7-1.6
						c7.2-0.5,14.3-1.1,21.5-1.5c8.8-0.6,17.8-0.4,26.5-2c10.2-1.8,21.2-0.3,28.1,8.3c6.2,7.6,6.1,18.1,6.1,27.4
						c0,5.3-0.1,10.6-0.1,15.9c0,5.7,0.8,12.7-5.1,15.8c-6,3.2-13.4,0.7-19.3,3.9c-6,3.2-12.7,2.6-19.4,2.9c-10,0.5-20,1-30,1
						c-20.7,0.1-42.6-0.6-63-5c-5.6-1.2-10.3-3.8-11.3-9.9c-0.8-4.7,0.2-9.6,0.5-14.3c0.7-9.4,1.6-19.3,7.2-27.3
						c6.1-8.6,15.7-9,25.1-11.6c5-1.4,9.8-3,15-3.3c5.2-0.3,10.4,0.2,15.5,0.5c14.8,0.7,29-1.4,43.7-2.9c8.5-0.9,19.1-2.9,27.5-0.6
						c10,2.7,12.7,17.8,14.5,26.6c1.8,9.1,3.9,22.5-1.6,30.7c-5.6,8.5-17.6,6.3-26.2,5.9c-13.8-0.6-27.8-1.9-41.6-0.7
						c-9.9,0.8-19.6,2.5-29.5,3c-10.1,0.6-20.3,0.5-30.4-0.3c-5-0.4-10.4-0.5-15.2-2c-6.4-1.9-10-7-11.1-13.4
						c-1.7-9.9,1.5-21.1,5.2-30.2c2.1-5.1,4.1-10.8,10-12c5.7-1.2,11.7-1.5,17.4-2c10.8-1,21.6-1.5,32.4-2.1
						c15.8-0.8,31.6-2.9,47.4-3.5c8.4-0.3,16.7,0,25.1,0.7C153,29.5,153,26.9,151.3,26.7L151.3,26.7z"/>
				</g>
			</g>
		</g>
		<g>
			<path d="M59.4,44.8c0.6-0.7,1.4-1,2.4-1c0.9,0,1.7,0.3,2.3,1l1,1l0.5,17.5C65.9,73,66,78.6,66,80c0,0.8,0,1.4,0,1.9
				c0,0.5-0.1,0.9-0.1,1.2c0,0.3-0.1,0.6-0.2,0.7c-0.1,0.2-0.2,0.3-0.2,0.3c0,0.1-0.1,0.1-0.3,0.2c-0.2,0.1-0.4,0.2-0.4,0.2
				c-0.6,0.4-1,0.5-1.4,0.5c-0.2,0-0.7-0.1-1.6-0.4c-1.2-0.5-1.9-1-2.1-1.3c-0.2-0.3-0.4-6.5-0.5-18.7c-0.1-12.2-0.2-18.4-0.4-18.6
				C58.6,45.9,58.8,45.4,59.4,44.8z"/>
			<path d="M99.9,43.9c0.7-0.3,1.3-0.4,1.9-0.4c1.3,0,2.3,0.5,2.9,1.4c0.4,0.6,0.8,2.8,1.2,6.6c0.4,3.9,0.7,8,0.9,12.5
				c0.1,1.4,0.1,3.5,0.3,6.2c0.1,2.7,0.2,5,0.3,7c0.1,2,0.1,3.6,0.1,4.7c0,0.7-0.4,1.2-1.2,1.7c-0.8,0.5-1.6,0.7-2.5,0.7
				c-0.8,0-1.3-0.2-1.7-0.5l-1-0.8l-0.2-9.4c-0.4-10.8-0.8-16.1-1.4-16.1c-0.4,0-1,1.3-1.8,4c-0.5,1.5-0.9,2.6-1.4,3.2
				c-0.5,0.6-1.1,0.9-1.8,0.9c-0.6,0-1.2-0.2-2-0.5c-0.9-0.4-1.6-1.2-2.2-2.4c-0.6-1.3-0.9-2.1-0.9-2.2c0-0.2-0.1-0.5-0.4-1
				c-0.3-0.5-0.6-1-0.9-1.5c-0.3-0.4-0.5-0.6-0.5-0.6v0.9c0,2.2,0.1,5.5,0.2,9.9L88,79.3L87,81c-1.1,1.8-2.1,2.6-2.9,2.6
				c-0.5,0-1-0.4-1.5-1.2c-0.4-0.6-0.7-1.6-0.8-2.9c-0.1-1.3-0.2-5.2-0.4-11.6c-0.3-12-0.6-18.8-0.9-20.4c-0.1-0.2-0.1-0.5-0.1-0.9
				c0-0.6,0.3-1.1,0.9-1.7c0.6-0.6,1.4-0.9,2.3-0.9c0.8,0,1.8,0.2,2.9,0.7c1,0.5,1.8,1.1,2.4,1.9c0.6,0.8,1.9,3.1,3.9,6.9
				c0.5,1,0.9,1.5,1.2,1.5c0.3,0,0.5-0.4,0.8-1.1c0.3-0.9,0.7-1.9,1.3-3.1c0.7-1.6,1.1-2.4,1.1-2.6c0-0.5,0.3-1.3,1-2.4
				C99,44.7,99.5,44.1,99.9,43.9z"/>
			<path d="M124.4,42.4c0.6-0.1,1.5-0.1,2.5-0.1c2.8,0.2,4.6,0.6,5.3,1.3c0.5,0.5,0.7,1.1,0.7,1.8c0,0.7-0.3,1.2-0.9,1.6
				c-0.6,0.4-1.2,0.6-2.1,0.6c-0.8-0.1-1.3,0.1-1.6,0.5c-0.3,0.4-0.5,1.2-0.6,2.6c0,0.4-0.1,1.7-0.1,3.9c-0.1,2.5-0.1,4.2,0,4.9
				c0.1,0.8,0.2,1.2,0.5,1.2c0.1,0,0.4,0,1,0.1c0.6,0.1,1.1,0.1,1.5,0.2c1.2,0.1,2.1,0.5,2.6,1.1c0.3,0.4,0.5,0.8,0.5,1.1
				c-0.1,0.8-1.2,1.5-3.5,2.2c-1.3,0.4-2.1,0.7-2.4,0.9c-0.3,0.2-0.5,0.8-0.7,1.6c-0.2,0.8-0.3,1.5-0.3,2.2
				c-0.2,2.6-0.1,4.5,0.3,5.9c0.2,0.5,0.4,0.9,0.6,1c0.2,0.1,0.8,0.3,1.6,0.3c1.1,0.1,2,0.4,2.7,0.9c0.7,0.5,1.1,1.2,1,1.8
				c0,0.5-0.5,1.1-1.3,1.8c-1.3,1.1-3.4,1.5-6.3,1.3c-3-0.2-4.9-1-5.7-2.4c-0.5-0.7-0.5-5.1,0-13.3c0.6-10.2,1-16.2,1-18l0.2-5.7
				l1.1-0.5C122.9,42.8,123.7,42.5,124.4,42.4z"/>
		</g>
		<path d="M411.1,38.3c1.6-0.3,3.8-2,4.4-3.5c0.4-1,0.2-2.3-0.6-3.1c-0.6-0.6-1.5-0.9-2.4-1c-0.5-0.1-0.9-0.1-1.4,0
			c-1.4,0.2-2.6,1.3-3.1,2.7C407.2,35.7,408.2,38.9,411.1,38.3z"/>
		<path d="M245.7,44.4c1.6-0.3,3.8-2,4.4-3.5c0.4-1,0.2-2.3-0.6-3.1c-0.6-0.6-1.5-0.9-2.4-1c-0.5-0.1-0.9-0.1-1.4,0
			c-1.4,0.2-2.6,1.3-3.1,2.7C241.8,41.8,242.9,45,245.7,44.4z"/>
		<path d="M457.4,78.6c1.6-0.3,3.8-2,4.4-3.5c0.4-1,0.2-2.3-0.6-3.1c-0.6-0.6-1.5-0.9-2.4-1c-0.5-0.1-0.9-0.1-1.4,0
			c-1.4,0.2-2.6,1.3-3.1,2.7C453.4,76,454.5,79.2,457.4,78.6z"/>
	</g>
</g>
</svg>
