<?xml version="1.0" encoding="utf-8"?>
<!-- Generator: Adobe Illustrator 18.1.1, SVG Export Plug-In . SVG Version: 6.00 Build 0)  -->
<svg version="1.1" xmlns="http://www.w3.org/2000/svg" xmlns:xlink="http://www.w3.org/1999/xlink" x="0px" y="0px"
	 viewBox="0 0 59.7 73" enable-background="new 0 0 59.7 73" xml:space="preserve">
<g id="Layer_2" display="none">
</g>
<g id="Layer_1">
	<g>
		<g>
			<g>
				<path d="M14.7,45.5c2.1,2.4,4.8,3.9,7.5,5.6c2.6,1.6,4.5,4.1,7.4,5.1c2,0.7,2.8-2.4,0.9-3.1c-2.5-0.9-4.5-3.3-6.7-4.8
					c-2.4-1.6-4.9-2.9-6.8-5.1C15.6,41.7,13.3,44,14.7,45.5L14.7,45.5z"/>
			</g>
		</g>
		<g>
			<g>
				<path d="M30.5,56.2c2.7-0.8,5-2.9,7.3-4.5c2.8-2,5.5-3.9,8.3-5.9c1.7-1.2,0.1-4-1.6-2.8c-2.4,1.7-4.9,3.5-7.3,5.2
					c-2.3,1.6-4.8,4.1-7.5,4.9C27.6,53.7,28.4,56.8,30.5,56.2L30.5,56.2z"/>
			</g>
		</g>
	</g>
	<g>
		<g>
			<g>
				<path d="M14.7,29.7c2.1,2.4,4.8,3.9,7.5,5.6c2.6,1.6,4.5,4.1,7.4,5.1c2,0.7,2.8-2.4,0.9-3.1C28,36.4,26,34,23.8,32.5
					c-2.4-1.6-4.9-2.9-6.8-5.1C15.6,25.9,13.3,28.2,14.7,29.7L14.7,29.7z"/>
			</g>
		</g>
		<g>
			<g>
				<path d="M30.5,40.5c2.7-0.8,5-2.9,7.3-4.5c2.8-2,5.5-3.9,8.3-5.9c1.7-1.2,0.1-4-1.6-2.8c-2.4,1.7-4.9,3.5-7.3,5.2
					c-2.3,1.6-4.8,4.1-7.5,4.9C27.6,37.9,28.4,41,30.5,40.5L30.5,40.5z"/>
			</g>
		</g>
	</g>
	<g>
		<g>
			<path d="M26.5,12.1c-2.4,1.3-3.6,4.4-2.2,6.9c1.6,2.9,5,3.3,7.7,1.8c2.4-1.3,4.3-4.3,2.9-7c-1.5-2.8-5.4-3.3-8-2
				c-1.9,0.9-0.2,3.7,1.6,2.8c0.9-0.5,3.2-0.4,3.6,0.9c0.3,1.1-0.8,2.1-1.7,2.6c-1.1,0.5-2.5,0.7-3.2-0.5c-0.6-1,0-2.1,1-2.7
				C29.9,13.9,28.3,11.1,26.5,12.1L26.5,12.1z"/>
		</g>
	</g>
</g>
</svg>
